M48
;Layer_Color=9474304
;FILE_FORMAT=4:4
METRIC,LZ
;TYPE=PLATED
T1F00S00C0.3000
T3F00S00C1.0000
T4F00S00C1.1000
T5F00S00C1.5000
T6F00S00C3.2000
;TYPE=NON_PLATED
T7F00S00C3.2000
%
T01
X0031825Y0006825
X0032425Y00073
X00368Y000665
X0040925Y000635
X0041725Y0006375
X00426
X00442Y00042
X00462
X00471363Y00091095
X00483Y00096
X00452Y001115
X00446Y00154
X0045175Y00215
X00478Y0025075
X0039325Y00251
X0031925Y00269
X00327Y00179
X0040225Y0011225
X003945Y000865
X006135Y000685
X0061375Y000605
X0067675Y001145
X0067Y00159
X0063075Y00174
X00626Y0018225
X005955Y0018
X00302Y00179
X0030225Y0022625
X00268Y00241
X00217Y0024875
X00194Y00226
X0017375
X00175Y00198
X0016375Y002065
X00155Y002
X0013975Y002245
X00115Y00216
Y00194
X001225Y0018025
X001305Y0018
X0013025Y00172
X0012225
Y00164
X0013
X0012175Y0015625
X0014825Y0013475
X00161Y001345
X00191Y001435
X002135Y001365
X00239Y00135
X0024825Y0018325
X0023325Y0019475
X00204Y00207
X001815Y002875
X0014975Y002715
X001Y00272
X001085Y002505
X00078Y002495
X000815Y0022725
X0006Y002275
Y00218
X000985Y00183
X00088Y00118
Y0011
X0008225Y00294
X00041Y0028475
X0001125Y0028075
X00305Y00087
X00289Y000675
X00271Y0034225
X00217Y00335
X00218Y0040725
X00191Y0041
X0017175Y0041475
X00204Y00431
X0022325Y004325
X0021875Y0047975
X00279Y0048675
X003095Y00419
X00119Y00414
X00115Y00407
X00124
X001Y0037
X00089Y00374
Y00328
X00063Y00452
X00057446Y00523195
X0032675Y0041975
X00333Y0041175
X00404Y0039
X00411
Y00383
X00404
X00407Y00477
Y00487
X00396
X00397Y00477
X0054475Y00412
X0056175Y004195
X005745Y0041825
X00572Y00403
X00558Y00387
Y00379
X005575Y00371
X00624Y00454
T03
X0059675Y002625
Y003075
X0066175
Y002625
X002445Y000825
X001995
Y000175
X002445
T04
X003302Y000254
X003556
X00381
X004064
X004318
X004572
X00508
X005334
X005588
X005842
X006096
X00635
X0062065Y0012573
X0059525
X0056985
X0054445
X0051905
X0049365
X0046825
X0044285
X0041745
X0039205
X0036665
X0034125
Y0020193
X0036665
X0039205
X0041745
X0044285
X0046825
X0049365
X0051905
X0054445
X0056985
X0059525
X0062065
X0031585
X0029045
Y0012573
X0031585
X003048Y000254
X002794
X00167Y00088
X001416
X001162
X000508Y003166
X000254
Y00342
X000508
Y0038608
Y0041148
X000762
Y0038608
X000254
Y0041148
Y0047244
Y0049784
X000508
X000762
Y0047244
X000508
X00146Y00446
Y004206
Y003952
Y003698
X0018796Y00508
X0021336
X0023876
X0026416
X0028956
X0031496
X0034036
X0036576
X0039116
X0041656
X004572
X004826
X00508
X005334
X005588
X005842
X006096
X00635
X00662Y00469
Y004436
Y004182
T05
X00021Y00029
Y00137
T06
X006604Y000762
X001397Y000254
X006604Y003556
T07
X001524Y00508
M30
