G04*
G04 #@! TF.GenerationSoftware,Altium Limited,Altium Designer,20.1.10 (176)*
G04*
G04 Layer_Color=8388736*
%FSLAX44Y44*%
%MOMM*%
G71*
G04*
G04 #@! TF.SameCoordinates,B75F8173-0FE2-46D9-B41C-7FCB152435E8*
G04*
G04*
G04 #@! TF.FilePolarity,Positive*
G04*
G01*
G75*
%ADD87C,1.0160*%
%ADD88C,0.2540*%
%ADD89C,0.3810*%
%ADD90C,0.7000*%
%ADD91C,0.1524*%
D87*
X676400Y355600D02*
G03*
X676400Y355600I-16000J0D01*
G01*
Y76200D02*
G03*
X676400Y76200I-16000J0D01*
G01*
X155700Y25400D02*
G03*
X155700Y25400I-16000J0D01*
G01*
X168400Y508000D02*
G03*
X168400Y508000I-16000J0D01*
G01*
X0Y0D02*
X685800D01*
X686000Y200D01*
Y533000D01*
X-0D02*
X686000D01*
X-0D02*
X0Y533000D01*
Y0D02*
Y533000D01*
D88*
Y-150000D02*
X15240Y-144920D01*
X0Y-150000D02*
X15240Y-155080D01*
X124460D02*
X139700Y-150000D01*
X124460Y-144920D02*
X139700Y-150000D01*
X0D02*
X41409D01*
X90163D02*
X139700D01*
X0Y-152540D02*
Y-7620D01*
X139700Y-152540D02*
Y33780D01*
X0Y-200000D02*
X15240Y-194920D01*
X0Y-200000D02*
X15240Y-205080D01*
X137218D02*
X152458Y-200000D01*
X137218Y-194920D02*
X152458Y-200000D01*
X0D02*
X47788D01*
X96542D02*
X152458D01*
X0Y-202540D02*
Y-7620D01*
X152458Y-202540D02*
Y507916D01*
X0Y-250000D02*
X15240Y-244920D01*
X0Y-250000D02*
X15240Y-255080D01*
X264218D02*
X279458Y-250000D01*
X264218Y-244920D02*
X279458Y-250000D01*
X0D02*
X106209D01*
X165121D02*
X279458D01*
X0Y-252540D02*
Y-7620D01*
X279458Y-252540D02*
Y25316D01*
X0Y-300000D02*
X15240Y-294920D01*
X0Y-300000D02*
X15240Y-305080D01*
X401378D02*
X416618Y-300000D01*
X401378Y-294920D02*
X416618Y-300000D01*
X0D02*
X173520D01*
X234970D02*
X416618D01*
X0Y-302540D02*
Y-7620D01*
X416618Y-302540D02*
Y507916D01*
X0Y-350000D02*
X15240Y-344920D01*
X0Y-350000D02*
X15240Y-355080D01*
X492818D02*
X508058Y-350000D01*
X492818Y-344920D02*
X508058Y-350000D01*
X0D02*
X217970D01*
X281960D02*
X508058D01*
X0Y-352540D02*
Y-7620D01*
X508058Y-352540D02*
Y25316D01*
X0Y-400000D02*
X15240Y-394920D01*
X0Y-400000D02*
X15240Y-405080D01*
X619818D02*
X635058Y-400000D01*
X619818Y-394920D02*
X635058Y-400000D01*
X0D02*
X281470D01*
X345460D02*
X635058D01*
X0Y-402540D02*
Y-7620D01*
X635058Y-402540D02*
Y507916D01*
X0Y-450000D02*
X15240Y-444920D01*
X0Y-450000D02*
X15240Y-455080D01*
X645218D02*
X660458Y-450000D01*
X645218Y-444920D02*
X660458Y-450000D01*
X0D02*
X294170D01*
X358160D02*
X660458D01*
X0Y-452540D02*
Y-7620D01*
X660458Y-452540D02*
Y355516D01*
X0Y-500000D02*
X15240Y-494920D01*
X0Y-500000D02*
X15240Y-505080D01*
X670618D02*
X685858Y-500000D01*
X670618Y-494920D02*
X685858Y-500000D01*
X0D02*
X306870D01*
X370860D02*
X685858D01*
X0Y-502540D02*
Y-7620D01*
X685858Y-502540D02*
Y-84D01*
X20378Y-50000D02*
X35618Y-44920D01*
X20378Y-50000D02*
X35618Y-55080D01*
X-15240D02*
X0Y-50000D01*
X-15240Y-44920D02*
X0Y-50000D01*
X20378D02*
X45778D01*
X-25400D02*
X0D01*
Y-52540D02*
Y-7620D01*
X20378Y-52540D02*
Y25316D01*
X25458Y-100000D02*
X40698Y-94920D01*
X25458Y-100000D02*
X40698Y-105080D01*
X-15240D02*
X0Y-100000D01*
X-15240Y-94920D02*
X0Y-100000D01*
X25458D02*
X50858D01*
X-25400D02*
X0D01*
Y-102540D02*
Y-7620D01*
X25458Y-102540D02*
Y472356D01*
X-55080Y40556D02*
X-50000Y25316D01*
X-44920Y40556D01*
X-50000Y0D02*
X-44920Y-15240D01*
X-55080D02*
X-50000Y0D01*
Y25316D02*
Y50716D01*
Y-25400D02*
Y0D01*
X-52540D02*
X-7620D01*
X-52540Y25316D02*
X508058D01*
X-80080Y91356D02*
X-75000Y76116D01*
X-69920Y91356D01*
X-75000Y0D02*
X-69920Y-15240D01*
X-80080D02*
X-75000Y0D01*
Y76116D02*
Y101516D01*
Y-25400D02*
Y0D01*
X-77540D02*
X-7620D01*
X-77540Y76116D02*
X660458D01*
X-130080Y15240D02*
X-125000Y0D01*
X-119920Y15240D01*
X-125000Y134536D02*
X-119920Y119296D01*
X-130080D02*
X-125000Y134536D01*
Y0D02*
Y38827D01*
Y87582D02*
Y134536D01*
X-127540Y0D02*
X-7620D01*
X-127540Y134536D02*
X20378D01*
X-180080Y15240D02*
X-175000Y0D01*
X-169920Y15240D01*
X-175000Y233916D02*
X-169920Y218676D01*
X-180080D02*
X-175000Y233916D01*
Y0D02*
Y91056D01*
Y134732D02*
Y233916D01*
X-177540Y0D02*
X-7620D01*
X-177540Y233916D02*
X22058D01*
X-230080Y15240D02*
X-225000Y0D01*
X-219920Y15240D01*
X-225000Y355516D02*
X-219920Y340276D01*
X-230080D02*
X-225000Y355516D01*
Y0D02*
Y142969D01*
Y204419D02*
Y355516D01*
X-227540Y0D02*
X-7620D01*
X-227540Y355516D02*
X660458D01*
X-280080Y15240D02*
X-275000Y0D01*
X-269920Y15240D01*
X-275000Y385996D02*
X-269920Y370756D01*
X-280080D02*
X-275000Y385996D01*
Y0D02*
Y158209D01*
Y219659D02*
Y385996D01*
X-277540Y0D02*
X-7620D01*
X-277540Y385996D02*
X25458D01*
X-330080Y15240D02*
X-325000Y0D01*
X-319920Y15240D01*
X-325000Y472356D02*
X-319920Y457116D01*
X-330080D02*
X-325000Y472356D01*
Y0D02*
Y201389D01*
Y262839D02*
Y472356D01*
X-327540Y0D02*
X-7620D01*
X-327540Y472356D02*
X25458D01*
X-380080Y15240D02*
X-375000Y-0D01*
X-369920Y15240D01*
X-375000Y508000D02*
X-369920Y492760D01*
X-380080D02*
X-375000Y508000D01*
Y-0D02*
Y217941D01*
Y281931D02*
Y508000D01*
X-377540Y-0D02*
X0D01*
X-377540Y508000D02*
X635000D01*
X-430080Y15240D02*
X-425000Y0D01*
X-419920Y15240D01*
X-425000Y533316D02*
X-419920Y518076D01*
X-430080D02*
X-425000Y533316D01*
Y0D02*
Y231869D01*
Y293319D02*
Y533316D01*
X-427540Y0D02*
X-7620D01*
X-427540Y533316D02*
X58D01*
D89*
X-336458Y-183072D02*
X-339843Y-179687D01*
X-346614D01*
X-350000Y-183072D01*
Y-186458D01*
X-346614Y-189843D01*
X-339843D01*
X-336458Y-193229D01*
Y-196614D01*
X-339843Y-200000D01*
X-346614D01*
X-350000Y-196614D01*
X-316144Y-186458D02*
X-326301D01*
X-329687Y-189843D01*
Y-196614D01*
X-326301Y-200000D01*
X-316144D01*
X-305988Y-186458D02*
X-299216D01*
X-295831Y-189843D01*
Y-200000D01*
X-305988D01*
X-309373Y-196614D01*
X-305988Y-193229D01*
X-295831D01*
X-289060Y-200000D02*
X-282289D01*
X-285674D01*
Y-179687D01*
X-289060D01*
X-261975Y-200000D02*
X-268746D01*
X-272132Y-196614D01*
Y-189843D01*
X-268746Y-186458D01*
X-261975D01*
X-258590Y-189843D01*
Y-193229D01*
X-272132D01*
X-251819Y-186458D02*
X-248433D01*
Y-189843D01*
X-251819D01*
Y-186458D01*
Y-196614D02*
X-248433D01*
Y-200000D01*
X-251819D01*
Y-196614D01*
X-214577Y-200000D02*
X-207806D01*
X-211192D01*
Y-179687D01*
X-214577Y-183072D01*
X-197649Y-186458D02*
X-194264D01*
Y-189843D01*
X-197649D01*
Y-186458D01*
Y-196614D02*
X-194264D01*
Y-200000D01*
X-197649D01*
Y-196614D01*
X-180721Y-200000D02*
X-173950D01*
X-177336D01*
Y-179687D01*
X-180721Y-183072D01*
X-350000Y-129687D02*
Y-146614D01*
X-346614Y-150000D01*
X-339843D01*
X-336458Y-146614D01*
Y-129687D01*
X-329687Y-150000D02*
Y-136458D01*
X-319530D01*
X-316144Y-139843D01*
Y-150000D01*
X-309373D02*
X-302602D01*
X-305988D01*
Y-136458D01*
X-309373D01*
X-289060Y-133072D02*
Y-136458D01*
X-292445D01*
X-285674D01*
X-289060D01*
Y-146614D01*
X-285674Y-150000D01*
X-275518D02*
X-265361D01*
X-261975Y-146614D01*
X-265361Y-143229D01*
X-272132D01*
X-275518Y-139843D01*
X-272132Y-136458D01*
X-261975D01*
X-255204D02*
X-251819D01*
Y-139843D01*
X-255204D01*
Y-136458D01*
Y-146614D02*
X-251819D01*
Y-150000D01*
X-255204D01*
Y-146614D01*
X-217963Y-150000D02*
Y-136458D01*
X-214577D01*
X-211192Y-139843D01*
Y-150000D01*
Y-139843D01*
X-207806Y-136458D01*
X-204421Y-139843D01*
Y-150000D01*
X-197649D02*
X-190878D01*
X-194264D01*
Y-136458D01*
X-197649D01*
X-180721Y-150000D02*
X-173950D01*
X-177336D01*
Y-129687D01*
X-180721D01*
X-163794Y-150000D02*
X-153637D01*
X-150251Y-146614D01*
X-153637Y-143229D01*
X-160408D01*
X-163794Y-139843D01*
X-160408Y-136458D01*
X-150251D01*
D90*
X571500Y811721D02*
Y788395D01*
X583163Y776732D01*
X594826Y788395D01*
Y811721D01*
X606489Y776732D02*
X618152D01*
X612320D01*
Y811721D01*
X606489Y805889D01*
X635646Y811721D02*
X647309D01*
X641477D01*
Y776732D01*
X635646D01*
X647309D01*
X664803D02*
X676466D01*
X670635D01*
Y811721D01*
X664803Y805889D01*
X61976Y834644D02*
Y869633D01*
X73639Y857970D01*
X85302Y869633D01*
Y834644D01*
X114459D02*
X102796D01*
X96965Y840475D01*
Y852138D01*
X102796Y857970D01*
X114459D01*
X120290Y852138D01*
Y846307D01*
X96965D01*
X155279Y857970D02*
X137785D01*
X131953Y852138D01*
Y840475D01*
X137785Y834644D01*
X155279D01*
X166942Y869633D02*
Y834644D01*
Y852138D01*
X172774Y857970D01*
X184436D01*
X190268Y852138D01*
Y834644D01*
X207762Y857970D02*
X219425D01*
X225257Y852138D01*
Y834644D01*
X207762D01*
X201931Y840475D01*
X207762Y846307D01*
X225257D01*
X236919Y834644D02*
Y857970D01*
X254414D01*
X260245Y852138D01*
Y834644D01*
X271908D02*
X283571D01*
X277740D01*
Y857970D01*
X271908D01*
X324391D02*
X306897D01*
X301066Y852138D01*
Y840475D01*
X306897Y834644D01*
X324391D01*
X341886Y857970D02*
X353549D01*
X359380Y852138D01*
Y834644D01*
X341886D01*
X336054Y840475D01*
X341886Y846307D01*
X359380D01*
X371043Y834644D02*
X382706D01*
X376874D01*
Y869633D01*
X371043D01*
X435189D02*
Y834644D01*
X452683D01*
X458515Y840475D01*
Y863801D01*
X452683Y869633D01*
X435189D01*
X470177Y857970D02*
Y834644D01*
Y846307D01*
X476009Y852138D01*
X481840Y857970D01*
X487672D01*
X510998D02*
X522661D01*
X528492Y852138D01*
Y834644D01*
X510998D01*
X505166Y840475D01*
X510998Y846307D01*
X528492D01*
X540155Y857970D02*
Y840475D01*
X545986Y834644D01*
X551818Y840475D01*
X557649Y834644D01*
X563481Y840475D01*
Y857970D01*
X575144Y834644D02*
X586806D01*
X580975D01*
Y857970D01*
X575144D01*
X604301Y834644D02*
Y857970D01*
X621795D01*
X627627Y852138D01*
Y834644D01*
X650953Y822981D02*
X656784D01*
X662615Y828812D01*
Y857970D01*
X645121D01*
X639290Y852138D01*
Y840475D01*
X645121Y834644D01*
X662615D01*
X69840Y774700D02*
X81502D01*
X87334Y780531D01*
Y792194D01*
X81502Y798026D01*
X69840D01*
X64008Y792194D01*
Y780531D01*
X69840Y774700D01*
X104828D02*
Y803857D01*
Y792194D01*
X98997D01*
X110660D01*
X104828D01*
Y803857D01*
X110660Y809689D01*
X163143Y774700D02*
Y798026D01*
X174806Y809689D01*
X186468Y798026D01*
Y774700D01*
Y792194D01*
X163143D01*
X198131Y798026D02*
Y774700D01*
Y786363D01*
X203963Y792194D01*
X209794Y798026D01*
X215626D01*
X256446Y809689D02*
Y774700D01*
X238951D01*
X233120Y780531D01*
Y792194D01*
X238951Y798026D01*
X256446D01*
X268109D02*
Y780531D01*
X273940Y774700D01*
X291434D01*
Y798026D01*
X303097Y774700D02*
X314760D01*
X308929D01*
Y798026D01*
X303097D01*
X332255Y774700D02*
Y798026D01*
X349749D01*
X355580Y792194D01*
Y774700D01*
X373075D02*
X384738D01*
X390569Y780531D01*
Y792194D01*
X384738Y798026D01*
X373075D01*
X367243Y792194D01*
Y780531D01*
X373075Y774700D01*
X437221Y809689D02*
Y780531D01*
X443052Y774700D01*
X454715D01*
X460547Y780531D01*
Y809689D01*
X472210Y774700D02*
Y809689D01*
X495535Y774700D01*
Y809689D01*
X524693D02*
X513030D01*
X507198Y803857D01*
Y780531D01*
X513030Y774700D01*
X524693D01*
X530524Y780531D01*
Y803857D01*
X524693Y809689D01*
D91*
X55629Y-143906D02*
X45473D01*
Y-151524D01*
X50551Y-148985D01*
X53090D01*
X55629Y-151524D01*
Y-156602D01*
X53090Y-159142D01*
X48012D01*
X45473Y-156602D01*
X70864Y-143906D02*
X60708D01*
Y-151524D01*
X65786Y-148985D01*
X68325D01*
X70864Y-151524D01*
Y-156602D01*
X68325Y-159142D01*
X63247D01*
X60708Y-156602D01*
X75943Y-146446D02*
X78482Y-143906D01*
X83560D01*
X86099Y-146446D01*
Y-156602D01*
X83560Y-159142D01*
X78482D01*
X75943Y-156602D01*
Y-146446D01*
X62008Y-193906D02*
X56930Y-196446D01*
X51852Y-201524D01*
Y-206602D01*
X54391Y-209142D01*
X59469D01*
X62008Y-206602D01*
Y-204063D01*
X59469Y-201524D01*
X51852D01*
X67087Y-196446D02*
X69626Y-193906D01*
X74704D01*
X77243Y-196446D01*
Y-206602D01*
X74704Y-209142D01*
X69626D01*
X67087Y-206602D01*
Y-196446D01*
X82322D02*
X84861Y-193906D01*
X89939D01*
X92478Y-196446D01*
Y-206602D01*
X89939Y-209142D01*
X84861D01*
X82322Y-206602D01*
Y-196446D01*
X110273Y-259142D02*
X115352D01*
X112812D01*
Y-243906D01*
X110273Y-246446D01*
X122969Y-259142D02*
X128047D01*
X125508D01*
Y-243906D01*
X122969Y-246446D01*
X135665D02*
X138204Y-243906D01*
X143282D01*
X145822Y-246446D01*
Y-256602D01*
X143282Y-259142D01*
X138204D01*
X135665Y-256602D01*
Y-246446D01*
X150900D02*
X153439Y-243906D01*
X158518D01*
X161057Y-246446D01*
Y-256602D01*
X158518Y-259142D01*
X153439D01*
X150900Y-256602D01*
Y-246446D01*
X177584Y-309142D02*
X182662D01*
X180123D01*
Y-293906D01*
X177584Y-296446D01*
X200436Y-293906D02*
X195358Y-296446D01*
X190280Y-301524D01*
Y-306602D01*
X192819Y-309142D01*
X197897D01*
X200436Y-306602D01*
Y-304063D01*
X197897Y-301524D01*
X190280D01*
X213132Y-309142D02*
Y-293906D01*
X205515Y-301524D01*
X215671D01*
X220750Y-296446D02*
X223289Y-293906D01*
X228367D01*
X230906Y-296446D01*
Y-306602D01*
X228367Y-309142D01*
X223289D01*
X220750Y-306602D01*
Y-296446D01*
X232191Y-359142D02*
X222034D01*
X232191Y-348985D01*
Y-346446D01*
X229652Y-343907D01*
X224573D01*
X222034Y-346446D01*
X237269D02*
X239808Y-343907D01*
X244887D01*
X247426Y-346446D01*
Y-356602D01*
X244887Y-359142D01*
X239808D01*
X237269Y-356602D01*
Y-346446D01*
X252504D02*
X255043Y-343907D01*
X260122D01*
X262661Y-346446D01*
Y-356602D01*
X260122Y-359142D01*
X255043D01*
X252504Y-356602D01*
Y-346446D01*
X267739D02*
X270278Y-343907D01*
X275357D01*
X277896Y-346446D01*
Y-356602D01*
X275357Y-359142D01*
X270278D01*
X267739Y-356602D01*
Y-346446D01*
X295691Y-409142D02*
X285534D01*
X295691Y-398985D01*
Y-396446D01*
X293152Y-393907D01*
X288073D01*
X285534Y-396446D01*
X310926Y-393907D02*
X300769D01*
Y-401524D01*
X305847Y-398985D01*
X308387D01*
X310926Y-401524D01*
Y-406602D01*
X308387Y-409142D01*
X303308D01*
X300769Y-406602D01*
X316004Y-396446D02*
X318543Y-393907D01*
X323622D01*
X326161Y-396446D01*
Y-406602D01*
X323622Y-409142D01*
X318543D01*
X316004Y-406602D01*
Y-396446D01*
X331239D02*
X333778Y-393907D01*
X338857D01*
X341396Y-396446D01*
Y-406602D01*
X338857Y-409142D01*
X333778D01*
X331239Y-406602D01*
Y-396446D01*
X308391Y-459142D02*
X298234D01*
X308391Y-448985D01*
Y-446446D01*
X305852Y-443907D01*
X300773D01*
X298234Y-446446D01*
X323626Y-443907D02*
X318547Y-446446D01*
X313469Y-451524D01*
Y-456602D01*
X316008Y-459142D01*
X321087D01*
X323626Y-456602D01*
Y-454063D01*
X321087Y-451524D01*
X313469D01*
X328704Y-446446D02*
X331243Y-443907D01*
X336322D01*
X338861Y-446446D01*
Y-456602D01*
X336322Y-459142D01*
X331243D01*
X328704Y-456602D01*
Y-446446D01*
X343939D02*
X346478Y-443907D01*
X351557D01*
X354096Y-446446D01*
Y-456602D01*
X351557Y-459142D01*
X346478D01*
X343939Y-456602D01*
Y-446446D01*
X321091Y-509142D02*
X310934D01*
X321091Y-498985D01*
Y-496446D01*
X318552Y-493907D01*
X313473D01*
X310934Y-496446D01*
X326169Y-493907D02*
X336326D01*
Y-496446D01*
X326169Y-506602D01*
Y-509142D01*
X341404Y-496446D02*
X343944Y-493907D01*
X349022D01*
X351561Y-496446D01*
Y-506602D01*
X349022Y-509142D01*
X343944D01*
X341404Y-506602D01*
Y-496446D01*
X356639D02*
X359179Y-493907D01*
X364257D01*
X366796Y-496446D01*
Y-506602D01*
X364257Y-509142D01*
X359179D01*
X356639Y-506602D01*
Y-496446D01*
X48318Y-46446D02*
X50857Y-43906D01*
X55936D01*
X58475Y-46446D01*
Y-48985D01*
X55936Y-51524D01*
X58475Y-54063D01*
Y-56602D01*
X55936Y-59142D01*
X50857D01*
X48318Y-56602D01*
Y-54063D01*
X50857Y-51524D01*
X48318Y-48985D01*
Y-46446D01*
X50857Y-51524D02*
X55936D01*
X63553Y-46446D02*
X66092Y-43906D01*
X71171D01*
X73710Y-46446D01*
Y-56602D01*
X71171Y-59142D01*
X66092D01*
X63553Y-56602D01*
Y-46446D01*
X53398Y-109142D02*
X58476D01*
X55937D01*
Y-93906D01*
X53398Y-96446D01*
X66094D02*
X68633Y-93906D01*
X73711D01*
X76251Y-96446D01*
Y-106602D01*
X73711Y-109142D01*
X68633D01*
X66094Y-106602D01*
Y-96446D01*
X81329D02*
X83868Y-93906D01*
X88947D01*
X91486Y-96446D01*
Y-106602D01*
X88947Y-109142D01*
X83868D01*
X81329Y-106602D01*
Y-96446D01*
X-40858Y-69076D02*
Y-63997D01*
Y-66536D01*
X-56094D01*
X-53554Y-69076D01*
Y-56380D02*
X-56094Y-53841D01*
Y-48762D01*
X-53554Y-46223D01*
X-43398D01*
X-40858Y-48762D01*
Y-53841D01*
X-43398Y-56380D01*
X-53554D01*
Y-41145D02*
X-56094Y-38605D01*
Y-33527D01*
X-53554Y-30988D01*
X-43398D01*
X-40858Y-33527D01*
Y-38605D01*
X-43398Y-41145D01*
X-53554D01*
X-78554Y-71615D02*
X-81094Y-69076D01*
Y-63997D01*
X-78554Y-61458D01*
X-76015D01*
X-73476Y-63997D01*
Y-66536D01*
Y-63997D01*
X-70937Y-61458D01*
X-68398D01*
X-65858Y-63997D01*
Y-69076D01*
X-68398Y-71615D01*
X-78554Y-56380D02*
X-81094Y-53841D01*
Y-48762D01*
X-78554Y-46223D01*
X-68398D01*
X-65858Y-48762D01*
Y-53841D01*
X-68398Y-56380D01*
X-78554D01*
Y-41145D02*
X-81094Y-38605D01*
Y-33527D01*
X-78554Y-30988D01*
X-68398D01*
X-65858Y-33527D01*
Y-38605D01*
X-68398Y-41145D01*
X-78554D01*
X-131094Y53047D02*
Y42891D01*
X-123476D01*
X-126015Y47969D01*
Y50508D01*
X-123476Y53047D01*
X-118398D01*
X-115858Y50508D01*
Y45430D01*
X-118398Y42891D01*
X-128554Y58126D02*
X-131094Y60665D01*
Y65743D01*
X-128554Y68282D01*
X-126015D01*
X-123476Y65743D01*
Y63204D01*
Y65743D01*
X-120937Y68282D01*
X-118398D01*
X-115858Y65743D01*
Y60665D01*
X-118398Y58126D01*
X-128554Y73361D02*
X-131094Y75900D01*
Y80978D01*
X-128554Y83517D01*
X-118398D01*
X-115858Y80978D01*
Y75900D01*
X-118398Y73361D01*
X-128554D01*
X-168398Y95120D02*
X-165858Y97659D01*
Y102737D01*
X-168398Y105276D01*
X-178554D01*
X-181094Y102737D01*
Y97659D01*
X-178554Y95120D01*
X-176015D01*
X-173476Y97659D01*
Y105276D01*
X-165858Y120512D02*
Y110355D01*
X-176015Y120512D01*
X-178554D01*
X-181094Y117972D01*
Y112894D01*
X-178554Y110355D01*
X-165858Y125590D02*
Y130668D01*
Y128129D01*
X-181094D01*
X-178554Y125590D01*
X-215858Y147033D02*
Y152111D01*
Y149572D01*
X-231094D01*
X-228554Y147033D01*
X-215858Y167346D02*
X-231094D01*
X-223476Y159728D01*
Y169885D01*
X-228554Y174964D02*
X-231094Y177503D01*
Y182581D01*
X-228554Y185120D01*
X-218398D01*
X-215858Y182581D01*
Y177503D01*
X-218398Y174964D01*
X-228554D01*
Y190199D02*
X-231094Y192738D01*
Y197816D01*
X-228554Y200355D01*
X-218398D01*
X-215858Y197816D01*
Y192738D01*
X-218398Y190199D01*
X-228554D01*
X-265858Y162273D02*
Y167351D01*
Y164812D01*
X-281094D01*
X-278554Y162273D01*
X-281094Y185125D02*
Y174968D01*
X-273476D01*
X-276015Y180047D01*
Y182586D01*
X-273476Y185125D01*
X-268398D01*
X-265858Y182586D01*
Y177508D01*
X-268398Y174968D01*
X-265858Y200360D02*
Y190204D01*
X-276015Y200360D01*
X-278554D01*
X-281094Y197821D01*
Y192743D01*
X-278554Y190204D01*
Y205439D02*
X-281094Y207978D01*
Y213056D01*
X-278554Y215595D01*
X-268398D01*
X-265858Y213056D01*
Y207978D01*
X-268398Y205439D01*
X-278554D01*
X-315858Y205453D02*
Y210531D01*
Y207992D01*
X-331093D01*
X-328554Y205453D01*
Y218148D02*
X-331093Y220688D01*
Y225766D01*
X-328554Y228305D01*
X-326015D01*
X-323476Y225766D01*
X-320937Y228305D01*
X-318398D01*
X-315858Y225766D01*
Y220688D01*
X-318398Y218148D01*
X-320937D01*
X-323476Y220688D01*
X-326015Y218148D01*
X-328554D01*
X-323476Y220688D02*
Y225766D01*
X-331093Y243540D02*
X-328554Y238462D01*
X-323476Y233384D01*
X-318398D01*
X-315858Y235923D01*
Y241001D01*
X-318398Y243540D01*
X-320937D01*
X-323476Y241001D01*
Y233384D01*
X-328554Y248619D02*
X-331093Y251158D01*
Y256236D01*
X-328554Y258775D01*
X-318398D01*
X-315858Y256236D01*
Y251158D01*
X-318398Y248619D01*
X-328554D01*
X-365858Y232162D02*
Y222005D01*
X-376015Y232162D01*
X-378554D01*
X-381093Y229623D01*
Y224544D01*
X-378554Y222005D01*
Y237240D02*
X-381093Y239779D01*
Y244858D01*
X-378554Y247397D01*
X-368398D01*
X-365858Y244858D01*
Y239779D01*
X-368398Y237240D01*
X-378554D01*
Y252475D02*
X-381093Y255014D01*
Y260093D01*
X-378554Y262632D01*
X-368398D01*
X-365858Y260093D01*
Y255014D01*
X-368398Y252475D01*
X-378554D01*
Y267710D02*
X-381093Y270249D01*
Y275328D01*
X-378554Y277867D01*
X-368398D01*
X-365858Y275328D01*
Y270249D01*
X-368398Y267710D01*
X-378554D01*
X-415858Y246089D02*
Y235933D01*
X-426015Y246089D01*
X-428554D01*
X-431093Y243550D01*
Y238472D01*
X-428554Y235933D01*
X-415858Y251168D02*
Y256246D01*
Y253707D01*
X-431093D01*
X-428554Y251168D01*
Y263864D02*
X-431093Y266403D01*
Y271481D01*
X-428554Y274020D01*
X-418398D01*
X-415858Y271481D01*
Y266403D01*
X-418398Y263864D01*
X-428554D01*
Y279099D02*
X-431093Y281638D01*
Y286716D01*
X-428554Y289255D01*
X-418398D01*
X-415858Y286716D01*
Y281638D01*
X-418398Y279099D01*
X-428554D01*
M02*
