G04*
G04 #@! TF.GenerationSoftware,Altium Limited,Altium Designer,20.1.10 (176)*
G04*
G04 Layer_Physical_Order=2*
G04 Layer_Color=16711680*
%FSLAX44Y44*%
%MOMM*%
G71*
G04*
G04 #@! TF.SameCoordinates,B75F8173-0FE2-46D9-B41C-7FCB152435E8*
G04*
G04*
G04 #@! TF.FilePolarity,Positive*
G04*
G01*
G75*
%ADD10C,0.2000*%
%ADD12C,0.5000*%
%ADD31R,1.9000X1.9000*%
%ADD63C,1.9000*%
%ADD64R,1.9000X1.9000*%
%ADD72C,0.6000*%
%ADD74C,1.0000*%
%ADD75C,0.4000*%
%ADD76C,3.2000*%
%ADD77C,4.0000*%
%ADD78O,1.6000X2.0000*%
%ADD79R,1.6000X2.0000*%
%ADD80C,7.4000*%
%ADD81C,1.7000*%
%ADD82R,1.7000X1.7000*%
%ADD83O,2.0000X1.6000*%
%ADD84R,2.0000X1.6000*%
G04:AMPARAMS|DCode=85|XSize=2mm|YSize=1.2mm|CornerRadius=0.36mm|HoleSize=0mm|Usage=FLASHONLY|Rotation=0.000|XOffset=0mm|YOffset=0mm|HoleType=Round|Shape=RoundedRectangle|*
%AMROUNDEDRECTD85*
21,1,2.0000,0.4800,0,0,0.0*
21,1,1.2800,1.2000,0,0,0.0*
1,1,0.7200,0.6400,-0.2400*
1,1,0.7200,-0.6400,-0.2400*
1,1,0.7200,-0.6400,0.2400*
1,1,0.7200,0.6400,0.2400*
%
%ADD85ROUNDEDRECTD85*%
%ADD86C,0.6000*%
G36*
X682000Y469750D02*
X675000D01*
Y480000D01*
X649000D01*
Y469750D01*
X272500Y469750D01*
X256500Y485750D01*
Y530000D01*
X682000D01*
X682000Y469750D01*
D02*
G37*
G36*
X104000Y452204D02*
X102730Y451678D01*
X86691Y467717D01*
X87404Y469438D01*
X87799Y472440D01*
X87404Y475442D01*
X86245Y478240D01*
X84402Y480642D01*
X82000Y482485D01*
X79202Y483644D01*
X76200Y484039D01*
X73198Y483644D01*
X70400Y482485D01*
X67998Y480642D01*
X66155Y478240D01*
X64996Y475442D01*
X64601Y472440D01*
X64996Y469438D01*
X66155Y466640D01*
X67998Y464238D01*
X70400Y462395D01*
X73198Y461236D01*
X76200Y460841D01*
X79202Y461236D01*
X80923Y461949D01*
X98756Y444116D01*
X100079Y443232D01*
X101640Y442922D01*
X101640Y442922D01*
X104000D01*
Y378125D01*
X134922D01*
X135548Y376855D01*
X134391Y375347D01*
X133283Y372672D01*
X132905Y369800D01*
X133283Y366928D01*
X134391Y364253D01*
X136155Y361955D01*
X138453Y360191D01*
X141128Y359083D01*
X144000Y358705D01*
X148000D01*
X150872Y359083D01*
X153547Y360191D01*
X155845Y361955D01*
X157608Y364253D01*
X158717Y366928D01*
X159095Y369800D01*
X158717Y372672D01*
X157608Y375347D01*
X156452Y376855D01*
X157078Y378125D01*
X168875D01*
X169863Y379113D01*
X170170Y379174D01*
X171163Y379837D01*
X171826Y380829D01*
X171887Y381137D01*
X173250Y382500D01*
X173250Y400924D01*
X185413Y413087D01*
X186076Y414080D01*
X186309Y415250D01*
X186309Y415250D01*
Y425309D01*
X198000Y437000D01*
X205000D01*
X219000Y423000D01*
X211000Y415000D01*
X211000Y394000D01*
X569500Y394000D01*
X569500Y349750D01*
X560250Y340500D01*
X560250Y209489D01*
X560242Y209478D01*
X559133Y206802D01*
X558755Y203930D01*
Y199930D01*
X559133Y197058D01*
X560242Y194382D01*
X560250Y194371D01*
Y185750D01*
X573000Y173000D01*
X604000D01*
X605000Y172000D01*
Y189000D01*
X609650D01*
Y188930D01*
X631650D01*
X632671Y188329D01*
X640750Y180250D01*
X640750Y172750D01*
X624000Y156000D01*
X596000Y156000D01*
X585000Y145000D01*
Y131729D01*
X584533Y130602D01*
X584155Y127730D01*
Y123730D01*
X584533Y120858D01*
X585000Y119731D01*
Y109000D01*
X622000D01*
X634000Y121000D01*
Y132000D01*
X682000D01*
Y3000D01*
X627000D01*
Y14073D01*
X628270Y14699D01*
X629453Y13792D01*
X632128Y12683D01*
X635000Y12305D01*
X637872Y12683D01*
X640547Y13792D01*
X642845Y15555D01*
X644609Y17852D01*
X645717Y20528D01*
X646095Y23400D01*
Y27400D01*
X645717Y30272D01*
X644609Y32947D01*
X642845Y35245D01*
X640547Y37009D01*
X637872Y38117D01*
X635000Y38495D01*
X632128Y38117D01*
X629453Y37009D01*
X628270Y36101D01*
X627000Y36727D01*
Y77000D01*
X484000D01*
X467059Y60059D01*
X367267D01*
X347163Y80163D01*
X346181Y80819D01*
X346000Y81000D01*
X345296D01*
X345000Y81059D01*
X345000Y81059D01*
X281941D01*
X232000Y131000D01*
X229296D01*
X229000Y131059D01*
X229000Y131059D01*
X157059D01*
Y135000D01*
X157059Y135000D01*
X156826Y136171D01*
X156163Y137163D01*
X151163Y142163D01*
X150171Y142826D01*
X149000Y143059D01*
X148117Y142883D01*
X147000Y144000D01*
X96000D01*
X96000Y162750D01*
X78559Y180191D01*
X78559Y226659D01*
X78500Y226954D01*
X78500Y227546D01*
X78559Y227841D01*
Y232000D01*
X78326Y233171D01*
X77663Y234163D01*
X77000Y234606D01*
Y235000D01*
X75795D01*
X75500Y235059D01*
X55000Y235059D01*
X54059Y235980D01*
Y304825D01*
X54039Y304925D01*
X54052Y305026D01*
X54000Y305220D01*
Y305478D01*
X56600Y306555D01*
X59002Y308398D01*
X60845Y310800D01*
X62004Y313598D01*
X62399Y316600D01*
X62004Y319602D01*
X60845Y322400D01*
X59002Y324802D01*
X56600Y326645D01*
X54000Y327722D01*
Y327980D01*
X54052Y328175D01*
X54039Y328275D01*
X54059Y328375D01*
Y330500D01*
X62300D01*
Y353500D01*
X54059D01*
Y374305D01*
X54039Y374405D01*
X54052Y374506D01*
X54000Y374700D01*
Y374958D01*
X56600Y376035D01*
X59002Y377878D01*
X60845Y380280D01*
X62004Y383078D01*
X62399Y386080D01*
X62004Y389082D01*
X60845Y391880D01*
X59002Y394282D01*
X56600Y396125D01*
X54000Y397202D01*
Y397460D01*
X54052Y397654D01*
X54039Y397755D01*
X54059Y397855D01*
Y399705D01*
X54039Y399805D01*
X54052Y399906D01*
X54000Y400100D01*
Y400358D01*
X56600Y401435D01*
X59002Y403278D01*
X60845Y405680D01*
X62004Y408478D01*
X62399Y411480D01*
X62004Y414482D01*
X60845Y417280D01*
X59002Y419682D01*
X56600Y421525D01*
X54000Y422602D01*
Y422860D01*
X54052Y423055D01*
X54039Y423155D01*
X54059Y423255D01*
Y460665D01*
X54039Y460765D01*
X54052Y460866D01*
X54000Y461060D01*
Y461318D01*
X56600Y462395D01*
X59002Y464238D01*
X60845Y466640D01*
X62004Y469438D01*
X62399Y472440D01*
X62004Y475442D01*
X60845Y478240D01*
X59002Y480642D01*
X56600Y482485D01*
X54000Y483562D01*
Y483820D01*
X54052Y484015D01*
X54039Y484115D01*
X54059Y484215D01*
Y486065D01*
X54039Y486165D01*
X54052Y486265D01*
X54000Y486460D01*
Y486718D01*
X56600Y487795D01*
X59002Y489638D01*
X60845Y492040D01*
X62004Y494838D01*
X62399Y497840D01*
X62004Y500842D01*
X60845Y503640D01*
X59002Y506042D01*
X56600Y507885D01*
X54000Y508962D01*
Y510000D01*
X42288D01*
X42075Y510054D01*
X41993Y510042D01*
X41911Y510059D01*
X3000D01*
Y530000D01*
X104000D01*
X104000Y452204D01*
D02*
G37*
G36*
X244250Y424750D02*
X313000Y424750D01*
X313000Y414000D01*
X233000D01*
X206000Y441000D01*
X197000D01*
X183250Y427250D01*
Y415250D01*
X170000Y402000D01*
X169000D01*
X169000Y382000D01*
X109000Y382000D01*
X109000Y434000D01*
X162000Y434000D01*
Y453000D01*
X163000Y454000D01*
X215000Y454000D01*
X244250Y424750D01*
D02*
G37*
G36*
X42359Y505730D02*
X40755Y503640D01*
X39596Y500842D01*
X39201Y497840D01*
X39596Y494838D01*
X40755Y492040D01*
X42598Y489638D01*
X45000Y487795D01*
X47798Y486636D01*
X50800Y486241D01*
X51000Y486065D01*
Y484215D01*
X50800Y484039D01*
X47798Y483644D01*
X45000Y482485D01*
X42598Y480642D01*
X40755Y478240D01*
X39596Y475442D01*
X39201Y472440D01*
X39596Y469438D01*
X40755Y466640D01*
X42598Y464238D01*
X45000Y462395D01*
X47798Y461236D01*
X50800Y460841D01*
X51000Y460665D01*
Y423255D01*
X50800Y423079D01*
X47798Y422684D01*
X45000Y421525D01*
X42598Y419682D01*
X40755Y417280D01*
X39596Y414482D01*
X39201Y411480D01*
X39596Y408478D01*
X40755Y405680D01*
X42598Y403278D01*
X45000Y401435D01*
X47798Y400276D01*
X50800Y399881D01*
X51000Y399705D01*
Y397855D01*
X50800Y397679D01*
X47798Y397284D01*
X45000Y396125D01*
X42598Y394282D01*
X40755Y391880D01*
X39596Y389082D01*
X39201Y386080D01*
X39596Y383078D01*
X40755Y380280D01*
X42598Y377878D01*
X45000Y376035D01*
X47798Y374876D01*
X50800Y374481D01*
X51000Y374305D01*
Y353500D01*
X39300D01*
Y330500D01*
X51000D01*
Y328375D01*
X50800Y328199D01*
X47798Y327804D01*
X45000Y326645D01*
X42598Y324802D01*
X40755Y322400D01*
X39596Y319602D01*
X39201Y316600D01*
X39596Y313598D01*
X40755Y310800D01*
X42598Y308398D01*
X45000Y306555D01*
X47798Y305396D01*
X50800Y305001D01*
X51000Y304825D01*
Y194000D01*
X50000Y193000D01*
X60941Y182059D01*
Y158000D01*
X61000Y157704D01*
Y157000D01*
X61181Y156819D01*
X61837Y155837D01*
X73941Y143733D01*
Y127000D01*
X74000Y126705D01*
Y126000D01*
X74181Y125819D01*
X74837Y124837D01*
X74837Y124837D01*
X79941Y119733D01*
Y106000D01*
X80174Y104830D01*
X80837Y103837D01*
X81830Y103174D01*
X83000Y102941D01*
X92000D01*
X93170Y103174D01*
X94163Y103837D01*
X94272Y104000D01*
X95000D01*
Y105704D01*
X95059Y106000D01*
Y139000D01*
X148000D01*
X149000Y140000D01*
X154000Y135000D01*
Y128000D01*
X229000D01*
X279000Y78000D01*
X345000D01*
X366000Y57000D01*
X470000D01*
X486000Y73000D01*
X620528D01*
X620770Y69923D01*
X622000Y64801D01*
Y3000D01*
X396059D01*
Y16721D01*
X397329Y17152D01*
X398555Y15555D01*
X400853Y13792D01*
X403528Y12683D01*
X406400Y12305D01*
X409272Y12683D01*
X411948Y13792D01*
X414245Y15555D01*
X416008Y17852D01*
X417117Y20528D01*
X417495Y23400D01*
Y27400D01*
X417117Y30272D01*
X416008Y32947D01*
X414245Y35245D01*
X411948Y37009D01*
X409272Y38117D01*
X406400Y38495D01*
X403528Y38117D01*
X400853Y37009D01*
X398555Y35245D01*
X397329Y33648D01*
X396059Y34079D01*
Y38000D01*
X395826Y39170D01*
X395163Y40163D01*
X395000Y40272D01*
Y41000D01*
X393296D01*
X393000Y41059D01*
X369000D01*
X368704Y41000D01*
X362326D01*
X359163Y44163D01*
X358171Y44826D01*
X357000Y45059D01*
X357000Y45059D01*
X354941Y45059D01*
X338000Y62000D01*
X336326D01*
X336163Y62163D01*
X335171Y62826D01*
X334000Y63059D01*
X334000Y63059D01*
X274267D01*
X265163Y72163D01*
X264181Y72819D01*
X264000Y73000D01*
X263296D01*
X263000Y73059D01*
X263000Y73059D01*
X257000D01*
Y95000D01*
X237000D01*
X219000Y113000D01*
Y114000D01*
X216296D01*
X216000Y114059D01*
X216000Y114059D01*
X170000D01*
X169704Y114000D01*
X169000D01*
X168819Y113819D01*
X167837Y113163D01*
X167837Y113163D01*
X155837Y101163D01*
X155181Y100181D01*
X155000Y100000D01*
Y99296D01*
X154941Y99000D01*
X154941Y99000D01*
Y78059D01*
X142321Y78059D01*
X142123Y78019D01*
X141922Y78033D01*
X141600Y77990D01*
X141278Y78033D01*
X141077Y78019D01*
X140879Y78059D01*
X127200D01*
Y101000D01*
X124295D01*
X124000Y101059D01*
X108898D01*
X108603Y101000D01*
X105200D01*
Y100200D01*
X77059Y72059D01*
X3000D01*
X3000Y73329D01*
Y120793D01*
X4196Y121221D01*
X4658Y120658D01*
X8160Y117784D01*
X12156Y115648D01*
X16491Y114333D01*
X21000Y113889D01*
X25509Y114333D01*
X29844Y115648D01*
X33840Y117784D01*
X37342Y120658D01*
X40216Y124160D01*
X42352Y128156D01*
X43667Y132491D01*
X44111Y137000D01*
X43667Y141509D01*
X42352Y145844D01*
X40216Y149840D01*
X37342Y153342D01*
X33840Y156216D01*
X30332Y158091D01*
X30366Y159480D01*
X31223Y159835D01*
X32602Y160893D01*
X33660Y162271D01*
X34325Y163877D01*
X34552Y165600D01*
Y170400D01*
X34325Y172123D01*
X33660Y173729D01*
X32602Y175107D01*
X31223Y176165D01*
X29618Y176830D01*
X27895Y177057D01*
X15095D01*
X13372Y176830D01*
X11767Y176165D01*
X10388Y175107D01*
X9330Y173729D01*
X8665Y172123D01*
X8438Y170400D01*
Y165600D01*
X8665Y163877D01*
X9330Y162271D01*
X10388Y160893D01*
X11767Y159835D01*
X12148Y159677D01*
X12155Y158525D01*
X12100Y158322D01*
X8160Y156216D01*
X4658Y153342D01*
X4196Y152779D01*
X3000Y153207D01*
X3000Y507000D01*
X41911D01*
X42359Y505730D01*
D02*
G37*
G36*
X75500Y232000D02*
Y227841D01*
X75382Y227250D01*
X75500Y226659D01*
X75500Y176750D01*
X92000Y162000D01*
Y107000D01*
Y106000D01*
X83000D01*
Y121000D01*
X77000Y127000D01*
Y145000D01*
X64000Y158000D01*
Y184000D01*
X55000Y193000D01*
Y232000D01*
X75500Y232000D01*
D02*
G37*
G36*
X232000Y95000D02*
Y70000D01*
X233000D01*
Y70000D01*
X263000D01*
X273000Y60000D01*
X334000D01*
X352000Y42000D01*
X357000Y42000D01*
X364000Y35000D01*
X364000Y16957D01*
X363102Y16059D01*
X359237D01*
X358066Y15826D01*
X357673Y15663D01*
X355600Y15390D01*
X353527Y15663D01*
X353134Y15826D01*
X351963Y16059D01*
X347000D01*
Y38000D01*
X333354D01*
X333072Y38117D01*
X330200Y38495D01*
X327328Y38117D01*
X327046Y38000D01*
X307954D01*
X307672Y38117D01*
X304800Y38495D01*
X301928Y38117D01*
X301646Y38000D01*
X290400D01*
Y38400D01*
X268400D01*
X268400Y38400D01*
Y38400D01*
X268400Y38400D01*
X267268Y38732D01*
X265000Y41000D01*
X228000D01*
X200285Y68715D01*
X200741Y70055D01*
X202763Y70322D01*
X205804Y71581D01*
X208415Y73585D01*
X210419Y76196D01*
X211678Y79237D01*
X212108Y82500D01*
X211678Y85763D01*
X210419Y88804D01*
X208415Y91415D01*
X205804Y93419D01*
X202763Y94678D01*
X199500Y95108D01*
X196237Y94678D01*
X193196Y93419D01*
X190585Y91415D01*
X188581Y88804D01*
X187322Y85763D01*
X186892Y82500D01*
X187310Y79329D01*
X187274Y78968D01*
X186667Y78059D01*
X167721D01*
X167523Y78019D01*
X167322Y78033D01*
X167074Y78000D01*
X166926D01*
X166678Y78033D01*
X166477Y78019D01*
X166279Y78059D01*
X158000Y78059D01*
Y99000D01*
X170000Y111000D01*
X216000D01*
X232000Y95000D01*
D02*
G37*
G36*
X124000Y75000D02*
X140879D01*
X141600Y74905D01*
X142321Y75000D01*
X166279Y75000D01*
X167000Y74905D01*
X167721Y75000D01*
X189000D01*
X227000Y37000D01*
X264000D01*
Y13000D01*
X268400D01*
Y12400D01*
X290400D01*
Y13000D01*
X301163D01*
X301928Y12683D01*
X304800Y12305D01*
X307672Y12683D01*
X308437Y13000D01*
X326563D01*
X327328Y12683D01*
X330200Y12305D01*
X333072Y12683D01*
X333837Y13000D01*
X351963D01*
X352728Y12683D01*
X355600Y12305D01*
X358472Y12683D01*
X359237Y13000D01*
X369000D01*
Y38000D01*
X393000D01*
Y3000D01*
X174186D01*
X173565Y4108D01*
X175450Y7184D01*
X177860Y13001D01*
X179330Y19123D01*
X179824Y25400D01*
X179330Y31677D01*
X177860Y37799D01*
X175450Y43616D01*
X172161Y48984D01*
X168072Y53772D01*
X163284Y57861D01*
X157916Y61150D01*
X152099Y63560D01*
X145977Y65030D01*
X139700Y65524D01*
X133423Y65030D01*
X127301Y63560D01*
X121484Y61150D01*
X116116Y57861D01*
X111328Y53772D01*
X107239Y48984D01*
X103949Y43616D01*
X101540Y37799D01*
X100070Y31677D01*
X99576Y25400D01*
X100070Y19123D01*
X101540Y13001D01*
X103949Y7184D01*
X105835Y4108D01*
X105214Y3000D01*
X3000D01*
Y69000D01*
X80000D01*
X108000Y97000D01*
Y97102D01*
X108898Y98000D01*
X124000D01*
X124000Y75000D01*
D02*
G37*
%LPC*%
G36*
X646000Y521000D02*
X624000D01*
Y495000D01*
X646000D01*
Y521000D01*
D02*
G37*
G36*
X427560D02*
X405560D01*
Y495000D01*
X427560D01*
Y521000D01*
D02*
G37*
G36*
X609600Y521095D02*
X606728Y520717D01*
X604053Y519608D01*
X601755Y517845D01*
X599991Y515547D01*
X598883Y512872D01*
X598505Y510000D01*
Y506000D01*
X598883Y503128D01*
X599991Y500452D01*
X601755Y498155D01*
X604053Y496391D01*
X606728Y495283D01*
X609600Y494905D01*
X612472Y495283D01*
X615148Y496391D01*
X617445Y498155D01*
X619208Y500452D01*
X620317Y503128D01*
X620695Y506000D01*
Y510000D01*
X620317Y512872D01*
X619208Y515547D01*
X617445Y517845D01*
X615148Y519608D01*
X612472Y520717D01*
X609600Y521095D01*
D02*
G37*
G36*
X584200D02*
X581328Y520717D01*
X578652Y519608D01*
X576355Y517845D01*
X574591Y515547D01*
X573483Y512872D01*
X573105Y510000D01*
Y506000D01*
X573483Y503128D01*
X574591Y500452D01*
X576355Y498155D01*
X578652Y496391D01*
X581328Y495283D01*
X584200Y494905D01*
X587072Y495283D01*
X589748Y496391D01*
X592045Y498155D01*
X593809Y500452D01*
X594917Y503128D01*
X595295Y506000D01*
Y510000D01*
X594917Y512872D01*
X593809Y515547D01*
X592045Y517845D01*
X589748Y519608D01*
X587072Y520717D01*
X584200Y521095D01*
D02*
G37*
G36*
X558800D02*
X555928Y520717D01*
X553252Y519608D01*
X550955Y517845D01*
X549192Y515547D01*
X548083Y512872D01*
X547705Y510000D01*
Y506000D01*
X548083Y503128D01*
X549192Y500452D01*
X550955Y498155D01*
X553252Y496391D01*
X555928Y495283D01*
X558800Y494905D01*
X561672Y495283D01*
X564347Y496391D01*
X566645Y498155D01*
X568409Y500452D01*
X569517Y503128D01*
X569895Y506000D01*
Y510000D01*
X569517Y512872D01*
X568409Y515547D01*
X566645Y517845D01*
X564347Y519608D01*
X561672Y520717D01*
X558800Y521095D01*
D02*
G37*
G36*
X533400D02*
X530528Y520717D01*
X527853Y519608D01*
X525555Y517845D01*
X523792Y515547D01*
X522683Y512872D01*
X522305Y510000D01*
Y506000D01*
X522683Y503128D01*
X523792Y500452D01*
X525555Y498155D01*
X527853Y496391D01*
X530528Y495283D01*
X533400Y494905D01*
X536272Y495283D01*
X538947Y496391D01*
X541245Y498155D01*
X543008Y500452D01*
X544117Y503128D01*
X544495Y506000D01*
Y510000D01*
X544117Y512872D01*
X543008Y515547D01*
X541245Y517845D01*
X538947Y519608D01*
X536272Y520717D01*
X533400Y521095D01*
D02*
G37*
G36*
X508000D02*
X505128Y520717D01*
X502453Y519608D01*
X500155Y517845D01*
X498391Y515547D01*
X497283Y512872D01*
X496905Y510000D01*
Y506000D01*
X497283Y503128D01*
X498391Y500452D01*
X500155Y498155D01*
X502453Y496391D01*
X505128Y495283D01*
X508000Y494905D01*
X510872Y495283D01*
X513548Y496391D01*
X515845Y498155D01*
X517608Y500452D01*
X518717Y503128D01*
X519095Y506000D01*
Y510000D01*
X518717Y512872D01*
X517608Y515547D01*
X515845Y517845D01*
X513548Y519608D01*
X510872Y520717D01*
X508000Y521095D01*
D02*
G37*
G36*
X482600D02*
X479728Y520717D01*
X477052Y519608D01*
X474755Y517845D01*
X472991Y515547D01*
X471883Y512872D01*
X471505Y510000D01*
Y506000D01*
X471883Y503128D01*
X472991Y500452D01*
X474755Y498155D01*
X477052Y496391D01*
X479728Y495283D01*
X482600Y494905D01*
X485472Y495283D01*
X488148Y496391D01*
X490445Y498155D01*
X492209Y500452D01*
X493317Y503128D01*
X493695Y506000D01*
Y510000D01*
X493317Y512872D01*
X492209Y515547D01*
X490445Y517845D01*
X488148Y519608D01*
X485472Y520717D01*
X482600Y521095D01*
D02*
G37*
G36*
X457200D02*
X454328Y520717D01*
X451652Y519608D01*
X449355Y517845D01*
X447592Y515547D01*
X446483Y512872D01*
X446105Y510000D01*
Y506000D01*
X446483Y503128D01*
X447592Y500452D01*
X449355Y498155D01*
X451652Y496391D01*
X454328Y495283D01*
X457200Y494905D01*
X460072Y495283D01*
X462747Y496391D01*
X465045Y498155D01*
X466809Y500452D01*
X467917Y503128D01*
X468295Y506000D01*
Y510000D01*
X467917Y512872D01*
X466809Y515547D01*
X465045Y517845D01*
X462747Y519608D01*
X460072Y520717D01*
X457200Y521095D01*
D02*
G37*
G36*
X391160D02*
X388288Y520717D01*
X385612Y519608D01*
X383315Y517845D01*
X381552Y515547D01*
X380443Y512872D01*
X380065Y510000D01*
Y506000D01*
X380443Y503128D01*
X381552Y500452D01*
X383315Y498155D01*
X385612Y496391D01*
X388288Y495283D01*
X391160Y494905D01*
X394032Y495283D01*
X396707Y496391D01*
X399005Y498155D01*
X400769Y500452D01*
X401877Y503128D01*
X402255Y506000D01*
Y510000D01*
X401877Y512872D01*
X400769Y515547D01*
X399005Y517845D01*
X396707Y519608D01*
X394032Y520717D01*
X391160Y521095D01*
D02*
G37*
G36*
X365760D02*
X362888Y520717D01*
X360213Y519608D01*
X357915Y517845D01*
X356152Y515547D01*
X355043Y512872D01*
X354665Y510000D01*
Y506000D01*
X355043Y503128D01*
X356152Y500452D01*
X357915Y498155D01*
X360213Y496391D01*
X362888Y495283D01*
X365760Y494905D01*
X368632Y495283D01*
X371307Y496391D01*
X373605Y498155D01*
X375368Y500452D01*
X376477Y503128D01*
X376855Y506000D01*
Y510000D01*
X376477Y512872D01*
X375368Y515547D01*
X373605Y517845D01*
X371307Y519608D01*
X368632Y520717D01*
X365760Y521095D01*
D02*
G37*
G36*
X340360D02*
X337488Y520717D01*
X334813Y519608D01*
X332515Y517845D01*
X330751Y515547D01*
X329643Y512872D01*
X329265Y510000D01*
Y506000D01*
X329643Y503128D01*
X330751Y500452D01*
X332515Y498155D01*
X334813Y496391D01*
X337488Y495283D01*
X340360Y494905D01*
X343232Y495283D01*
X345908Y496391D01*
X348205Y498155D01*
X349968Y500452D01*
X351077Y503128D01*
X351455Y506000D01*
Y510000D01*
X351077Y512872D01*
X349968Y515547D01*
X348205Y517845D01*
X345908Y519608D01*
X343232Y520717D01*
X340360Y521095D01*
D02*
G37*
G36*
X314960D02*
X312088Y520717D01*
X309412Y519608D01*
X307115Y517845D01*
X305352Y515547D01*
X304243Y512872D01*
X303865Y510000D01*
Y506000D01*
X304243Y503128D01*
X305352Y500452D01*
X305900Y499737D01*
X296991Y490828D01*
X283491D01*
X283326Y491076D01*
X281341Y492402D01*
X279000Y492868D01*
X276659Y492402D01*
X274674Y491076D01*
X273348Y489091D01*
X272882Y486750D01*
X273348Y484409D01*
X274674Y482424D01*
X276659Y481098D01*
X279000Y480633D01*
X281341Y481098D01*
X283326Y482424D01*
X283491Y482672D01*
X298680D01*
X298680Y482672D01*
X299982Y482931D01*
X300241Y482982D01*
X301564Y483866D01*
X312877Y495179D01*
X314960Y494905D01*
X317832Y495283D01*
X320508Y496391D01*
X322805Y498155D01*
X324568Y500452D01*
X325677Y503128D01*
X326055Y506000D01*
Y510000D01*
X325677Y512872D01*
X324568Y515547D01*
X322805Y517845D01*
X320508Y519608D01*
X317832Y520717D01*
X314960Y521095D01*
D02*
G37*
G36*
X289560D02*
X286688Y520717D01*
X284013Y519608D01*
X281715Y517845D01*
X279951Y515547D01*
X278843Y512872D01*
X278465Y510000D01*
Y506000D01*
X278843Y503128D01*
X279951Y500452D01*
X281715Y498155D01*
X284013Y496391D01*
X286688Y495283D01*
X289560Y494905D01*
X292432Y495283D01*
X295107Y496391D01*
X297405Y498155D01*
X299168Y500452D01*
X300277Y503128D01*
X300655Y506000D01*
Y510000D01*
X300277Y512872D01*
X299168Y515547D01*
X297405Y517845D01*
X295107Y519608D01*
X292432Y520717D01*
X289560Y521095D01*
D02*
G37*
G36*
X76200Y397679D02*
X73198Y397284D01*
X70400Y396125D01*
X67998Y394282D01*
X66155Y391880D01*
X64996Y389082D01*
X64601Y386080D01*
X64996Y383078D01*
X66155Y380280D01*
X67998Y377878D01*
X70400Y376035D01*
X73198Y374876D01*
X76200Y374481D01*
X79202Y374876D01*
X82000Y376035D01*
X83143Y375312D01*
X82882Y374000D01*
X83348Y371659D01*
X84674Y369674D01*
X84922Y369509D01*
Y332491D01*
X84674Y332326D01*
X83348Y330341D01*
X82882Y328000D01*
X83348Y325659D01*
X84674Y323674D01*
X86659Y322348D01*
X89000Y321883D01*
X91341Y322348D01*
X93326Y323674D01*
X94652Y325659D01*
X95922Y325533D01*
Y276491D01*
X95674Y276326D01*
X94348Y274341D01*
X93883Y272000D01*
X94348Y269659D01*
X95674Y267674D01*
X97659Y266348D01*
X100000Y265882D01*
X102341Y266348D01*
X104326Y267674D01*
X105652Y269659D01*
X106117Y272000D01*
X105652Y274341D01*
X104326Y276326D01*
X104078Y276491D01*
Y365509D01*
X104326Y365674D01*
X105652Y367659D01*
X106117Y370000D01*
X105652Y372341D01*
X104326Y374326D01*
X102341Y375652D01*
X100000Y376118D01*
X97659Y375652D01*
X96269Y374723D01*
X94872Y375236D01*
X94652Y376341D01*
X93326Y378326D01*
X91341Y379652D01*
X89000Y380117D01*
X87422Y379804D01*
X86509Y380917D01*
X87404Y383078D01*
X87799Y386080D01*
X87404Y389082D01*
X86245Y391880D01*
X84402Y394282D01*
X82000Y396125D01*
X79202Y397284D01*
X76200Y397679D01*
D02*
G37*
G36*
X319250Y275117D02*
X316909Y274652D01*
X314924Y273326D01*
X313598Y271341D01*
X313132Y269000D01*
X313598Y266659D01*
X314924Y264674D01*
X315172Y264509D01*
Y216793D01*
X315172Y216793D01*
X315283Y216231D01*
X314504Y214925D01*
X314342Y214826D01*
X312978Y214647D01*
X310303Y213538D01*
X308005Y211775D01*
X307531Y211158D01*
X306328Y211566D01*
Y221759D01*
X306576Y221924D01*
X307902Y223909D01*
X308368Y226250D01*
X307902Y228591D01*
X306576Y230576D01*
X304591Y231902D01*
X302250Y232367D01*
X299909Y231902D01*
X297924Y230576D01*
X296598Y228591D01*
X296133Y226250D01*
X296598Y223909D01*
X297924Y221924D01*
X298172Y221759D01*
Y213306D01*
X297033Y212744D01*
X295998Y213538D01*
X293322Y214647D01*
X290450Y215025D01*
X287578Y214647D01*
X284902Y213538D01*
X282605Y211775D01*
X280842Y209478D01*
X279733Y206802D01*
X279355Y203930D01*
Y199930D01*
X279733Y197058D01*
X280342Y195589D01*
X271831Y187078D01*
X252908D01*
X252576Y187576D01*
X250591Y188902D01*
X248250Y189368D01*
X245909Y188902D01*
X243924Y187576D01*
X242598Y185591D01*
X242132Y183250D01*
X242598Y180909D01*
X243924Y178924D01*
X245909Y177598D01*
X248250Y177132D01*
X250591Y177598D01*
X252572Y178922D01*
X273520D01*
X273520Y178922D01*
X275081Y179232D01*
X276404Y180116D01*
X286109Y189822D01*
X287578Y189213D01*
X290450Y188835D01*
X293322Y189213D01*
X295998Y190322D01*
X297033Y191116D01*
X298172Y190554D01*
Y183658D01*
X297674Y183326D01*
X296348Y181341D01*
X295882Y179000D01*
X296348Y176659D01*
X297674Y174674D01*
X299659Y173348D01*
X302000Y172882D01*
X304341Y173348D01*
X306326Y174674D01*
X307652Y176659D01*
X308118Y179000D01*
X307652Y181341D01*
X306328Y183322D01*
Y192294D01*
X307531Y192702D01*
X308005Y192085D01*
X310303Y190322D01*
X312978Y189213D01*
X315850Y188835D01*
X318722Y189213D01*
X321398Y190322D01*
X322133Y190886D01*
X323272Y190324D01*
Y183725D01*
X322674Y183326D01*
X321348Y181341D01*
X320882Y179000D01*
X321348Y176659D01*
X322674Y174674D01*
X324659Y173348D01*
X327000Y172882D01*
X329341Y173348D01*
X331326Y174674D01*
X332652Y176659D01*
X333117Y179000D01*
X332652Y181341D01*
X331428Y183172D01*
Y192574D01*
X332698Y193005D01*
X333405Y192085D01*
X335703Y190322D01*
X338378Y189213D01*
X341250Y188835D01*
X344122Y189213D01*
X346797Y190322D01*
X349095Y192085D01*
X350858Y194382D01*
X351967Y197058D01*
X352345Y199930D01*
Y203930D01*
X351967Y206802D01*
X350858Y209478D01*
X349095Y211775D01*
X346797Y213538D01*
X344122Y214647D01*
X341250Y215025D01*
X338378Y214647D01*
X335703Y213538D01*
X333405Y211775D01*
X332377Y210436D01*
X332020Y210384D01*
X330894Y210589D01*
X330234Y211577D01*
X323328Y218483D01*
Y264509D01*
X323576Y264674D01*
X324902Y266659D01*
X325368Y269000D01*
X324902Y271341D01*
X323576Y273326D01*
X321591Y274652D01*
X319250Y275117D01*
D02*
G37*
G36*
X115000Y222118D02*
X112659Y221652D01*
X110674Y220326D01*
X109348Y218341D01*
X108883Y216000D01*
X109348Y213659D01*
X110674Y211674D01*
X112659Y210348D01*
X115000Y209883D01*
X115292Y209940D01*
X120048Y205184D01*
X119736Y203965D01*
X119630Y203806D01*
X119439Y203768D01*
X118116Y202884D01*
X115292Y200060D01*
X115000Y200117D01*
X112659Y199652D01*
X110674Y198326D01*
X109348Y196341D01*
X108883Y194000D01*
X109348Y191659D01*
X110674Y189674D01*
X112659Y188348D01*
X115000Y187882D01*
X117341Y188348D01*
X119326Y189674D01*
X120652Y191659D01*
X121117Y194000D01*
X121060Y194292D01*
X122689Y195922D01*
X150509D01*
X150674Y195674D01*
X152659Y194348D01*
X155000Y193883D01*
X157341Y194348D01*
X159326Y195674D01*
X160652Y197659D01*
X161062Y199721D01*
X161154Y200021D01*
X162278Y200675D01*
X163750Y200382D01*
X166091Y200848D01*
X168076Y202174D01*
X169402Y204159D01*
X169867Y206500D01*
X169402Y208841D01*
X168076Y210826D01*
X166091Y212152D01*
X163750Y212617D01*
X161409Y212152D01*
X159424Y210826D01*
X159259Y210578D01*
X126189D01*
X121060Y215708D01*
X121117Y216000D01*
X120652Y218341D01*
X119326Y220326D01*
X117341Y221652D01*
X115000Y222118D01*
D02*
G37*
G36*
X204000Y213118D02*
X201659Y212652D01*
X199674Y211326D01*
X192466Y204118D01*
X175000D01*
X172659Y203652D01*
X170674Y202326D01*
X169348Y200341D01*
X168883Y198000D01*
X169348Y195659D01*
X170674Y193674D01*
X172659Y192348D01*
X175000Y191882D01*
X195000D01*
X197341Y192348D01*
X199326Y193674D01*
X208326Y202674D01*
X209652Y204659D01*
X210117Y207000D01*
X209652Y209341D01*
X208326Y211326D01*
X206341Y212652D01*
X204000Y213118D01*
D02*
G37*
G36*
X544450Y215025D02*
X541578Y214647D01*
X538903Y213538D01*
X536605Y211775D01*
X534841Y209478D01*
X533733Y206802D01*
X533355Y203930D01*
Y199930D01*
X533733Y197058D01*
X534841Y194382D01*
X536605Y192085D01*
X538903Y190322D01*
X541578Y189213D01*
X544450Y188835D01*
X547322Y189213D01*
X549997Y190322D01*
X552295Y192085D01*
X554058Y194382D01*
X555167Y197058D01*
X555545Y199930D01*
Y203930D01*
X555167Y206802D01*
X554058Y209478D01*
X552295Y211775D01*
X549997Y213538D01*
X547322Y214647D01*
X544450Y215025D01*
D02*
G37*
G36*
X519050D02*
X516178Y214647D01*
X513503Y213538D01*
X511205Y211775D01*
X509441Y209478D01*
X508333Y206802D01*
X507955Y203930D01*
Y199930D01*
X508333Y197058D01*
X509441Y194382D01*
X511205Y192085D01*
X513503Y190322D01*
X516178Y189213D01*
X519050Y188835D01*
X521922Y189213D01*
X524598Y190322D01*
X526895Y192085D01*
X528658Y194382D01*
X529767Y197058D01*
X530145Y199930D01*
Y203930D01*
X529767Y206802D01*
X528658Y209478D01*
X526895Y211775D01*
X524598Y213538D01*
X521922Y214647D01*
X519050Y215025D01*
D02*
G37*
G36*
X493650D02*
X490778Y214647D01*
X488102Y213538D01*
X485805Y211775D01*
X484041Y209478D01*
X482933Y206802D01*
X482555Y203930D01*
Y199930D01*
X482933Y197058D01*
X484041Y194382D01*
X485805Y192085D01*
X488102Y190322D01*
X490778Y189213D01*
X493650Y188835D01*
X496522Y189213D01*
X499198Y190322D01*
X501495Y192085D01*
X503259Y194382D01*
X504367Y197058D01*
X504745Y199930D01*
Y203930D01*
X504367Y206802D01*
X503259Y209478D01*
X501495Y211775D01*
X499198Y213538D01*
X496522Y214647D01*
X493650Y215025D01*
D02*
G37*
G36*
X468250D02*
X465378Y214647D01*
X462702Y213538D01*
X460405Y211775D01*
X458642Y209478D01*
X457533Y206802D01*
X457155Y203930D01*
Y199930D01*
X457533Y197058D01*
X458642Y194382D01*
X460405Y192085D01*
X462702Y190322D01*
X465378Y189213D01*
X468250Y188835D01*
X471122Y189213D01*
X473797Y190322D01*
X476095Y192085D01*
X477859Y194382D01*
X478967Y197058D01*
X479345Y199930D01*
Y203930D01*
X478967Y206802D01*
X477859Y209478D01*
X476095Y211775D01*
X473797Y213538D01*
X471122Y214647D01*
X468250Y215025D01*
D02*
G37*
G36*
X417450D02*
X414578Y214647D01*
X411903Y213538D01*
X409605Y211775D01*
X407841Y209478D01*
X406733Y206802D01*
X406355Y203930D01*
Y199930D01*
X406733Y197058D01*
X407841Y194382D01*
X409605Y192085D01*
X411903Y190322D01*
X414578Y189213D01*
X417450Y188835D01*
X420322Y189213D01*
X422998Y190322D01*
X425295Y192085D01*
X427058Y194382D01*
X428167Y197058D01*
X428545Y199930D01*
Y203930D01*
X428167Y206802D01*
X427058Y209478D01*
X425295Y211775D01*
X422998Y213538D01*
X420322Y214647D01*
X417450Y215025D01*
D02*
G37*
G36*
X392050D02*
X389178Y214647D01*
X386502Y213538D01*
X384205Y211775D01*
X382441Y209478D01*
X381333Y206802D01*
X380955Y203930D01*
Y199930D01*
X381333Y197058D01*
X382441Y194382D01*
X384205Y192085D01*
X386502Y190322D01*
X389178Y189213D01*
X392050Y188835D01*
X394922Y189213D01*
X397598Y190322D01*
X399895Y192085D01*
X401659Y194382D01*
X402767Y197058D01*
X403145Y199930D01*
Y203930D01*
X402767Y206802D01*
X401659Y209478D01*
X399895Y211775D01*
X397598Y213538D01*
X394922Y214647D01*
X392050Y215025D01*
D02*
G37*
G36*
X366650D02*
X363778Y214647D01*
X361102Y213538D01*
X358805Y211775D01*
X357042Y209478D01*
X355933Y206802D01*
X355555Y203930D01*
Y199930D01*
X355933Y197058D01*
X357042Y194382D01*
X358805Y192085D01*
X361102Y190322D01*
X363778Y189213D01*
X366650Y188835D01*
X369522Y189213D01*
X372197Y190322D01*
X374495Y192085D01*
X376259Y194382D01*
X377367Y197058D01*
X377745Y199930D01*
Y203930D01*
X377367Y206802D01*
X376259Y209478D01*
X374495Y211775D01*
X372197Y213538D01*
X369522Y214647D01*
X366650Y215025D01*
D02*
G37*
G36*
X569850Y138825D02*
X566978Y138447D01*
X564302Y137338D01*
X562005Y135575D01*
X560242Y133278D01*
X559133Y130602D01*
X558755Y127730D01*
Y123730D01*
X559133Y120858D01*
X560242Y118182D01*
X562005Y115885D01*
X564302Y114122D01*
X566978Y113013D01*
X569850Y112635D01*
X572722Y113013D01*
X575397Y114122D01*
X577695Y115885D01*
X579459Y118182D01*
X580567Y120858D01*
X580945Y123730D01*
Y127730D01*
X580567Y130602D01*
X579459Y133278D01*
X577695Y135575D01*
X575397Y137338D01*
X572722Y138447D01*
X569850Y138825D01*
D02*
G37*
G36*
X544450D02*
X541578Y138447D01*
X538903Y137338D01*
X536605Y135575D01*
X534841Y133278D01*
X533733Y130602D01*
X533355Y127730D01*
Y123730D01*
X533733Y120858D01*
X534841Y118182D01*
X536605Y115885D01*
X538903Y114122D01*
X541578Y113013D01*
X544450Y112635D01*
X547322Y113013D01*
X549997Y114122D01*
X552295Y115885D01*
X554058Y118182D01*
X555167Y120858D01*
X555545Y123730D01*
Y127730D01*
X555167Y130602D01*
X554058Y133278D01*
X552295Y135575D01*
X549997Y137338D01*
X547322Y138447D01*
X544450Y138825D01*
D02*
G37*
G36*
X506250Y162059D02*
X440000D01*
X438829Y161826D01*
X437837Y161163D01*
X437174Y160170D01*
X436941Y159000D01*
Y146000D01*
X437174Y144830D01*
X437837Y143837D01*
X438829Y143174D01*
X440000Y142941D01*
X467233D01*
X476441Y133733D01*
Y90000D01*
X476674Y88829D01*
X477337Y87837D01*
X478330Y87174D01*
X479500Y86941D01*
X506250Y86941D01*
X507421Y87174D01*
X508413Y87837D01*
X509076Y88829D01*
X509309Y90000D01*
Y116269D01*
X510579Y116700D01*
X511205Y115885D01*
X513503Y114122D01*
X516178Y113013D01*
X519050Y112635D01*
X521922Y113013D01*
X524598Y114122D01*
X526895Y115885D01*
X528658Y118182D01*
X529767Y120858D01*
X530145Y123730D01*
Y127730D01*
X529767Y130602D01*
X528658Y133278D01*
X526895Y135575D01*
X524598Y137338D01*
X521922Y138447D01*
X519050Y138825D01*
X516178Y138447D01*
X513503Y137338D01*
X511205Y135575D01*
X510579Y134760D01*
X509309Y135191D01*
Y159000D01*
X509076Y160170D01*
X508413Y161163D01*
X507421Y161826D01*
X506250Y162059D01*
D02*
G37*
G36*
X442850Y138825D02*
X439978Y138447D01*
X437303Y137338D01*
X435005Y135575D01*
X433242Y133278D01*
X432133Y130602D01*
X431755Y127730D01*
Y123730D01*
X432133Y120858D01*
X433242Y118182D01*
X435005Y115885D01*
X437303Y114122D01*
X439978Y113013D01*
X442850Y112635D01*
X445722Y113013D01*
X448397Y114122D01*
X450695Y115885D01*
X452458Y118182D01*
X453567Y120858D01*
X453945Y123730D01*
Y127730D01*
X453567Y130602D01*
X452458Y133278D01*
X450695Y135575D01*
X448397Y137338D01*
X445722Y138447D01*
X442850Y138825D01*
D02*
G37*
G36*
X417450D02*
X414578Y138447D01*
X411903Y137338D01*
X409605Y135575D01*
X407841Y133278D01*
X406733Y130602D01*
X406355Y127730D01*
Y123730D01*
X406733Y120858D01*
X407841Y118182D01*
X409605Y115885D01*
X411903Y114122D01*
X414578Y113013D01*
X417450Y112635D01*
X420322Y113013D01*
X422998Y114122D01*
X425295Y115885D01*
X427058Y118182D01*
X428167Y120858D01*
X428545Y123730D01*
Y127730D01*
X428167Y130602D01*
X427058Y133278D01*
X425295Y135575D01*
X422998Y137338D01*
X420322Y138447D01*
X417450Y138825D01*
D02*
G37*
G36*
X392050D02*
X389178Y138447D01*
X386502Y137338D01*
X384205Y135575D01*
X382441Y133278D01*
X381333Y130602D01*
X380955Y127730D01*
Y123730D01*
X381333Y120858D01*
X382441Y118182D01*
X384205Y115885D01*
X386502Y114122D01*
X389178Y113013D01*
X392050Y112635D01*
X394922Y113013D01*
X397598Y114122D01*
X399895Y115885D01*
X401659Y118182D01*
X402767Y120858D01*
X403145Y123730D01*
Y127730D01*
X402767Y130602D01*
X401659Y133278D01*
X399895Y135575D01*
X397598Y137338D01*
X394922Y138447D01*
X392050Y138825D01*
D02*
G37*
G36*
X366650D02*
X363778Y138447D01*
X361102Y137338D01*
X358805Y135575D01*
X357042Y133278D01*
X355933Y130602D01*
X355555Y127730D01*
Y123730D01*
X355933Y120858D01*
X357042Y118182D01*
X358805Y115885D01*
X361102Y114122D01*
X363778Y113013D01*
X366650Y112635D01*
X369522Y113013D01*
X372197Y114122D01*
X374495Y115885D01*
X376259Y118182D01*
X377367Y120858D01*
X377745Y123730D01*
Y127730D01*
X377367Y130602D01*
X376259Y133278D01*
X374495Y135575D01*
X372197Y137338D01*
X369522Y138447D01*
X366650Y138825D01*
D02*
G37*
G36*
X341250D02*
X338378Y138447D01*
X335703Y137338D01*
X333405Y135575D01*
X331642Y133278D01*
X330533Y130602D01*
X330155Y127730D01*
Y123730D01*
X330533Y120858D01*
X331642Y118182D01*
X333405Y115885D01*
X335703Y114122D01*
X338378Y113013D01*
X341250Y112635D01*
X344122Y113013D01*
X346797Y114122D01*
X349095Y115885D01*
X350858Y118182D01*
X351967Y120858D01*
X352345Y123730D01*
Y127730D01*
X351967Y130602D01*
X350858Y133278D01*
X349095Y135575D01*
X346797Y137338D01*
X344122Y138447D01*
X341250Y138825D01*
D02*
G37*
G36*
X315850D02*
X312978Y138447D01*
X310303Y137338D01*
X308005Y135575D01*
X306241Y133278D01*
X305133Y130602D01*
X304755Y127730D01*
Y123730D01*
X305133Y120858D01*
X306241Y118182D01*
X308005Y115885D01*
X310303Y114122D01*
X312978Y113013D01*
X315850Y112635D01*
X318722Y113013D01*
X321398Y114122D01*
X323695Y115885D01*
X325458Y118182D01*
X326567Y120858D01*
X326945Y123730D01*
Y127730D01*
X326567Y130602D01*
X325458Y133278D01*
X323695Y135575D01*
X321398Y137338D01*
X318722Y138447D01*
X315850Y138825D01*
D02*
G37*
G36*
X290450D02*
X287578Y138447D01*
X284902Y137338D01*
X282605Y135575D01*
X280842Y133278D01*
X279733Y130602D01*
X279355Y127730D01*
Y123730D01*
X279733Y120858D01*
X280842Y118182D01*
X282605Y115885D01*
X284902Y114122D01*
X287578Y113013D01*
X290450Y112635D01*
X293322Y113013D01*
X295998Y114122D01*
X298295Y115885D01*
X300058Y118182D01*
X301167Y120858D01*
X301545Y123730D01*
Y127730D01*
X301167Y130602D01*
X300058Y133278D01*
X298295Y135575D01*
X295998Y137338D01*
X293322Y138447D01*
X290450Y138825D01*
D02*
G37*
%LPD*%
G36*
X506250Y90000D02*
X479500Y90000D01*
Y135000D01*
X468500Y146000D01*
X440000D01*
Y159000D01*
X506250D01*
Y90000D01*
D02*
G37*
%LPC*%
G36*
X493650Y138825D02*
X490778Y138447D01*
X488102Y137338D01*
X485805Y135575D01*
X484041Y133278D01*
X482933Y130602D01*
X482555Y127730D01*
Y123730D01*
X482933Y120858D01*
X484041Y118182D01*
X485805Y115885D01*
X488102Y114122D01*
X490778Y113013D01*
X493650Y112635D01*
X496522Y113013D01*
X499198Y114122D01*
X501495Y115885D01*
X503259Y118182D01*
X504367Y120858D01*
X504745Y123730D01*
Y127730D01*
X504367Y130602D01*
X503259Y133278D01*
X501495Y135575D01*
X499198Y137338D01*
X496522Y138447D01*
X493650Y138825D01*
D02*
G37*
G36*
X148000Y431695D02*
X144000D01*
X141128Y431317D01*
X138453Y430209D01*
X136155Y428445D01*
X134391Y426147D01*
X133283Y423472D01*
X132905Y420600D01*
X133283Y417728D01*
X134391Y415053D01*
X136155Y412755D01*
X138453Y410992D01*
X141128Y409883D01*
X144000Y409505D01*
X148000D01*
X150872Y409883D01*
X153547Y410992D01*
X155845Y412755D01*
X157608Y415053D01*
X158717Y417728D01*
X159095Y420600D01*
X158717Y423472D01*
X157608Y426147D01*
X155845Y428445D01*
X153547Y430209D01*
X150872Y431317D01*
X148000Y431695D01*
D02*
G37*
G36*
Y406295D02*
X144000D01*
X141128Y405917D01*
X138453Y404809D01*
X136155Y403045D01*
X134391Y400747D01*
X133283Y398072D01*
X132905Y395200D01*
X133283Y392328D01*
X134391Y389653D01*
X136155Y387355D01*
X138453Y385592D01*
X141128Y384483D01*
X144000Y384105D01*
X148000D01*
X150872Y384483D01*
X153547Y385592D01*
X155845Y387355D01*
X157608Y389653D01*
X158717Y392328D01*
X159095Y395200D01*
X158717Y398072D01*
X157608Y400747D01*
X155845Y403045D01*
X153547Y404809D01*
X150872Y405917D01*
X148000Y406295D01*
D02*
G37*
G36*
X36900Y483940D02*
X13900D01*
Y460940D01*
X36900D01*
Y483940D01*
D02*
G37*
G36*
Y397580D02*
X13900D01*
Y374580D01*
X36900D01*
Y397580D01*
D02*
G37*
G36*
X25400Y353599D02*
X22398Y353204D01*
X19600Y352045D01*
X17198Y350202D01*
X15355Y347800D01*
X14196Y345002D01*
X13801Y342000D01*
X14196Y338998D01*
X15355Y336200D01*
X17198Y333798D01*
X19600Y331955D01*
X22398Y330796D01*
X25400Y330401D01*
X28402Y330796D01*
X31200Y331955D01*
X33602Y333798D01*
X35445Y336200D01*
X36604Y338998D01*
X36999Y342000D01*
X36604Y345002D01*
X35445Y347800D01*
X33602Y350202D01*
X31200Y352045D01*
X28402Y353204D01*
X25400Y353599D01*
D02*
G37*
G36*
Y328199D02*
X22398Y327804D01*
X19600Y326645D01*
X17198Y324802D01*
X15355Y322400D01*
X14196Y319602D01*
X13801Y316600D01*
X14196Y313598D01*
X15355Y310800D01*
X17198Y308398D01*
X19600Y306555D01*
X22398Y305396D01*
X25400Y305001D01*
X28402Y305396D01*
X31200Y306555D01*
X33602Y308398D01*
X35445Y310800D01*
X36604Y313598D01*
X36999Y316600D01*
X36604Y319602D01*
X35445Y322400D01*
X33602Y324802D01*
X31200Y326645D01*
X28402Y327804D01*
X25400Y328199D01*
D02*
G37*
G36*
X28895Y243057D02*
X16095D01*
X14372Y242830D01*
X12766Y242165D01*
X11388Y241107D01*
X10330Y239729D01*
X9665Y238123D01*
X9438Y236400D01*
Y231600D01*
X9665Y229877D01*
X10330Y228272D01*
X11388Y226893D01*
X12766Y225835D01*
X14372Y225170D01*
X16095Y224943D01*
X28895D01*
X30618Y225170D01*
X32223Y225835D01*
X33602Y226893D01*
X34660Y228272D01*
X35325Y229877D01*
X35552Y231600D01*
Y236400D01*
X35325Y238123D01*
X34660Y239729D01*
X33602Y241107D01*
X32223Y242165D01*
X30618Y242830D01*
X28895Y243057D01*
D02*
G37*
G36*
X519000Y38400D02*
X497000D01*
Y12400D01*
X519000D01*
Y38400D01*
D02*
G37*
G36*
X609600Y38495D02*
X606728Y38117D01*
X604053Y37009D01*
X601755Y35245D01*
X599991Y32947D01*
X598883Y30272D01*
X598505Y27400D01*
Y23400D01*
X598883Y20528D01*
X599991Y17852D01*
X601755Y15555D01*
X604053Y13792D01*
X606728Y12683D01*
X609600Y12305D01*
X612472Y12683D01*
X615148Y13792D01*
X617445Y15555D01*
X619208Y17852D01*
X620317Y20528D01*
X620695Y23400D01*
Y27400D01*
X620317Y30272D01*
X619208Y32947D01*
X617445Y35245D01*
X615148Y37009D01*
X612472Y38117D01*
X609600Y38495D01*
D02*
G37*
G36*
X584200D02*
X581328Y38117D01*
X578652Y37009D01*
X576355Y35245D01*
X574591Y32947D01*
X573483Y30272D01*
X573105Y27400D01*
Y23400D01*
X573483Y20528D01*
X574591Y17852D01*
X576355Y15555D01*
X578652Y13792D01*
X581328Y12683D01*
X584200Y12305D01*
X587072Y12683D01*
X589748Y13792D01*
X592045Y15555D01*
X593809Y17852D01*
X594917Y20528D01*
X595295Y23400D01*
Y27400D01*
X594917Y30272D01*
X593809Y32947D01*
X592045Y35245D01*
X589748Y37009D01*
X587072Y38117D01*
X584200Y38495D01*
D02*
G37*
G36*
X558800D02*
X555928Y38117D01*
X553252Y37009D01*
X550955Y35245D01*
X549192Y32947D01*
X548083Y30272D01*
X547705Y27400D01*
Y23400D01*
X548083Y20528D01*
X549192Y17852D01*
X550955Y15555D01*
X553252Y13792D01*
X555928Y12683D01*
X558800Y12305D01*
X561672Y12683D01*
X564347Y13792D01*
X566645Y15555D01*
X568409Y17852D01*
X569517Y20528D01*
X569895Y23400D01*
Y27400D01*
X569517Y30272D01*
X568409Y32947D01*
X566645Y35245D01*
X564347Y37009D01*
X561672Y38117D01*
X558800Y38495D01*
D02*
G37*
G36*
X533400D02*
X530528Y38117D01*
X527853Y37009D01*
X525555Y35245D01*
X523792Y32947D01*
X522683Y30272D01*
X522305Y27400D01*
Y23400D01*
X522683Y20528D01*
X523792Y17852D01*
X525555Y15555D01*
X527853Y13792D01*
X530528Y12683D01*
X533400Y12305D01*
X536272Y12683D01*
X538947Y13792D01*
X541245Y15555D01*
X543008Y17852D01*
X544117Y20528D01*
X544495Y23400D01*
Y27400D01*
X544117Y30272D01*
X543008Y32947D01*
X541245Y35245D01*
X538947Y37009D01*
X536272Y38117D01*
X533400Y38495D01*
D02*
G37*
G36*
X457200D02*
X454328Y38117D01*
X451652Y37009D01*
X449355Y35245D01*
X447592Y32947D01*
X446483Y30272D01*
X446105Y27400D01*
Y23400D01*
X446483Y20528D01*
X447592Y17852D01*
X449355Y15555D01*
X451652Y13792D01*
X454328Y12683D01*
X457200Y12305D01*
X460072Y12683D01*
X462747Y13792D01*
X465045Y15555D01*
X466809Y17852D01*
X467917Y20528D01*
X468295Y23400D01*
Y27400D01*
X467917Y30272D01*
X466809Y32947D01*
X465045Y35245D01*
X462747Y37009D01*
X460072Y38117D01*
X457200Y38495D01*
D02*
G37*
G36*
X431800D02*
X428928Y38117D01*
X426253Y37009D01*
X423955Y35245D01*
X422192Y32947D01*
X421083Y30272D01*
X420705Y27400D01*
Y23400D01*
X421083Y20528D01*
X422192Y17852D01*
X423955Y15555D01*
X426253Y13792D01*
X428928Y12683D01*
X431800Y12305D01*
X434672Y12683D01*
X437347Y13792D01*
X439645Y15555D01*
X441409Y17852D01*
X442517Y20528D01*
X442895Y23400D01*
Y27400D01*
X442517Y30272D01*
X441409Y32947D01*
X439645Y35245D01*
X437347Y37009D01*
X434672Y38117D01*
X431800Y38495D01*
D02*
G37*
G36*
X244500Y30108D02*
X241237Y29678D01*
X238196Y28419D01*
X235585Y26415D01*
X233581Y23804D01*
X232322Y20763D01*
X231892Y17500D01*
X232322Y14237D01*
X233581Y11196D01*
X235585Y8585D01*
X238196Y6581D01*
X241237Y5322D01*
X244500Y4892D01*
X247763Y5322D01*
X250804Y6581D01*
X253415Y8585D01*
X255419Y11196D01*
X256678Y14237D01*
X257108Y17500D01*
X256678Y20763D01*
X255419Y23804D01*
X253415Y26415D01*
X250804Y28419D01*
X247763Y29678D01*
X244500Y30108D01*
D02*
G37*
G36*
X199500D02*
X196237Y29678D01*
X193196Y28419D01*
X190585Y26415D01*
X188581Y23804D01*
X187322Y20763D01*
X186892Y17500D01*
X187322Y14237D01*
X188581Y11196D01*
X190585Y8585D01*
X193196Y6581D01*
X196237Y5322D01*
X199500Y4892D01*
X202763Y5322D01*
X205804Y6581D01*
X208415Y8585D01*
X210419Y11196D01*
X211678Y14237D01*
X212108Y17500D01*
X211678Y20763D01*
X210419Y23804D01*
X208415Y26415D01*
X205804Y28419D01*
X202763Y29678D01*
X199500Y30108D01*
D02*
G37*
%LPD*%
D10*
X326750Y419750D02*
X561500D01*
X561750Y419500D01*
X302250Y179250D02*
Y226250D01*
X302000Y179000D02*
X302250Y179250D01*
X319250Y216793D02*
X327350Y208693D01*
Y179350D02*
Y208693D01*
X327000Y179000D02*
X327350Y179350D01*
X319250Y216793D02*
Y269000D01*
X247750Y183250D02*
X248000Y183000D01*
X610750Y330250D02*
X631000Y310000D01*
Y243000D02*
X663500Y210500D01*
X631000Y243000D02*
Y310000D01*
X644750Y245000D02*
X676500Y213250D01*
X619900Y334350D02*
X644750Y309500D01*
Y245000D02*
Y309500D01*
X610750Y330250D02*
Y442750D01*
X619900Y334350D02*
Y449900D01*
X617250Y240000D02*
Y308750D01*
X600000Y326000D02*
X617250Y308750D01*
X600000Y326000D02*
Y436500D01*
X617250Y240000D02*
X651750Y205500D01*
X676500Y167000D02*
Y213250D01*
X670500Y159500D02*
Y160312D01*
X671500Y161312D01*
Y162000D01*
X676500Y167000D01*
X279000Y486750D02*
X298680D01*
X315000Y503069D01*
X124500Y206500D02*
X163750D01*
X115000Y216000D02*
X124500Y206500D01*
X663500Y168580D02*
Y210500D01*
X620650Y125730D02*
X663500Y168580D01*
X651750Y171250D02*
Y205500D01*
X608757Y144250D02*
X624750D01*
X651750Y171250D01*
X595500Y127980D02*
X595760Y128240D01*
X595500Y125250D02*
Y127980D01*
X595250Y128750D02*
Y130743D01*
X608757Y144250D01*
X620650Y125730D02*
Y125730D01*
X619900Y449900D02*
X624000Y454000D01*
X589750Y463750D02*
X610750Y442750D01*
X581500Y455000D02*
X600000Y436500D01*
X213360Y504140D02*
X262500Y455000D01*
X581500D01*
X267500Y463750D02*
X589750D01*
X248750Y430250D02*
X562500D01*
X574500Y418250D01*
X217250Y461750D02*
X248750Y430250D01*
X222250Y403000D02*
X572000D01*
X218000Y407250D02*
X222250Y403000D01*
X163750Y461750D02*
X217250D01*
X333000Y411750D02*
X544500D01*
X544750Y412000D01*
X213360Y504140D02*
Y508000D01*
X251500Y479750D02*
X267500Y463750D01*
X243250Y524000D02*
X251500Y515750D01*
Y479750D02*
Y515750D01*
X201960Y524000D02*
X243250D01*
X188000Y510040D02*
X201960Y524000D01*
X151750Y449750D02*
X163750Y461750D01*
X315000Y503069D02*
Y507000D01*
X101640Y447000D02*
X147000D01*
X89000Y328000D02*
Y374000D01*
X100000Y272000D02*
Y370000D01*
X290000Y199480D02*
Y202000D01*
X273520Y183000D02*
X290000Y199480D01*
X248000Y183000D02*
X273520D01*
X121000Y200000D02*
X155000D01*
X115000Y194000D02*
X121000Y200000D01*
X76200Y472440D02*
X101640Y447000D01*
X188000Y509000D02*
Y510040D01*
D12*
X582500Y221750D02*
X583125Y222375D01*
X582500Y192250D02*
X595250Y179500D01*
X582500Y192250D02*
Y221750D01*
D31*
X244500Y82500D02*
D03*
D63*
X661750Y307500D02*
D03*
X596750Y262500D02*
D03*
Y307500D02*
D03*
X199500Y82500D02*
D03*
X244500Y17500D02*
D03*
X199500D02*
D03*
D64*
X661750Y262500D02*
D03*
D72*
X195000Y198000D02*
X204000Y207000D01*
X175000Y198000D02*
X195000D01*
D74*
X255500Y443000D02*
X571000D01*
X218750Y479750D02*
X255500Y443000D01*
X218750Y479750D02*
X218750D01*
X574723Y336376D02*
X587500Y349154D01*
X574723Y230777D02*
X583125Y222375D01*
X574723Y230777D02*
Y336376D01*
X583125Y222375D02*
X583250Y222250D01*
X571000Y443000D02*
X587500Y426500D01*
Y349154D02*
Y426500D01*
D75*
X660400Y95142D02*
X681117Y115859D01*
Y124633D01*
X660400Y76200D02*
Y95142D01*
X681000Y124750D02*
X681117Y124633D01*
D76*
X152400Y508000D02*
D03*
D77*
X21000Y29000D02*
D03*
Y137000D02*
D03*
D78*
X187960Y508000D02*
D03*
X213360D02*
D03*
X238760D02*
D03*
X264160D02*
D03*
X289560D02*
D03*
X314960D02*
D03*
X340360D02*
D03*
X365760D02*
D03*
X391160D02*
D03*
X304800Y25400D02*
D03*
X330200D02*
D03*
X355600D02*
D03*
X381000D02*
D03*
X406400D02*
D03*
X431800D02*
D03*
X457200D02*
D03*
X609600Y508000D02*
D03*
X584200D02*
D03*
X558800D02*
D03*
X533400D02*
D03*
X508000D02*
D03*
X482600D02*
D03*
X457200D02*
D03*
X533400Y25400D02*
D03*
X558800D02*
D03*
X584200D02*
D03*
X609600D02*
D03*
X635000D02*
D03*
X141600Y88000D02*
D03*
X167000D02*
D03*
X290450Y125730D02*
D03*
X315850D02*
D03*
X341250D02*
D03*
X366650D02*
D03*
X392050D02*
D03*
X417450D02*
D03*
X442850D02*
D03*
X468250D02*
D03*
X493650D02*
D03*
X519050D02*
D03*
X544450D02*
D03*
X569850D02*
D03*
X595250D02*
D03*
X620650D02*
D03*
X290450Y201930D02*
D03*
X315850D02*
D03*
X341250D02*
D03*
X366650D02*
D03*
X392050D02*
D03*
X417450D02*
D03*
X442850D02*
D03*
X468250D02*
D03*
X493650D02*
D03*
X519050D02*
D03*
X544450D02*
D03*
X569850D02*
D03*
X595250D02*
D03*
D79*
X416560Y508000D02*
D03*
X279400Y25400D02*
D03*
X635000Y508000D02*
D03*
X508000Y25400D02*
D03*
X116200Y88000D02*
D03*
X620650Y201930D02*
D03*
D80*
X139700Y25400D02*
D03*
X660400Y76200D02*
D03*
Y355600D02*
D03*
D81*
X76200Y497840D02*
D03*
X50800D02*
D03*
X25400D02*
D03*
X76200Y472440D02*
D03*
X50800D02*
D03*
X76200Y411480D02*
D03*
X50800D02*
D03*
X25400D02*
D03*
X76200Y386080D02*
D03*
X50800D02*
D03*
X25400Y316600D02*
D03*
X50800D02*
D03*
X25400Y342000D02*
D03*
D82*
Y472440D02*
D03*
Y386080D02*
D03*
X50800Y342000D02*
D03*
D83*
X146000Y369800D02*
D03*
Y395200D02*
D03*
Y420600D02*
D03*
X662000Y443600D02*
D03*
Y418200D02*
D03*
D84*
X146000Y446000D02*
D03*
X662000Y469000D02*
D03*
D85*
X21495Y168000D02*
D03*
X22495Y234000D02*
D03*
D86*
X155000Y200000D02*
D03*
X149750Y271500D02*
D03*
X163750Y206500D02*
D03*
X100000Y272000D02*
D03*
X89000Y328000D02*
D03*
X181500Y287500D02*
D03*
X309500Y419000D02*
D03*
X326750Y419750D02*
D03*
X11250Y280750D02*
D03*
X161000Y134500D02*
D03*
X121750Y156250D02*
D03*
X130500Y180000D02*
D03*
X130250Y172000D02*
D03*
X130000Y164000D02*
D03*
X122250D02*
D03*
X122500Y180250D02*
D03*
X411000Y383000D02*
D03*
X404000D02*
D03*
X411000Y390000D02*
D03*
X407000Y477000D02*
D03*
X397000D02*
D03*
X396000Y487000D02*
D03*
X98500Y183000D02*
D03*
X404000Y390000D02*
D03*
X407000Y487000D02*
D03*
X302250Y226250D02*
D03*
X319250Y269000D02*
D03*
X558000Y387000D02*
D03*
Y379000D02*
D03*
X613500Y68500D02*
D03*
X613750Y60500D02*
D03*
X191000Y143500D02*
D03*
X670000Y159000D02*
D03*
X676750Y114500D02*
D03*
X446000Y154000D02*
D03*
X409250Y63500D02*
D03*
X426000Y63750D02*
D03*
X368000Y66500D02*
D03*
X324250Y73000D02*
D03*
X318250Y68250D02*
D03*
X289000Y67500D02*
D03*
X115000Y407000D02*
D03*
X119000Y414000D02*
D03*
X124000Y407000D02*
D03*
X279000Y486750D02*
D03*
X218750Y479750D02*
D03*
X194000Y226000D02*
D03*
X173750D02*
D03*
X626000Y182250D02*
D03*
X630750Y174000D02*
D03*
X81500Y227250D02*
D03*
X572000Y403000D02*
D03*
X223250Y432500D02*
D03*
X333000Y411750D02*
D03*
X544750Y412000D02*
D03*
X557500Y371000D02*
D03*
X574500Y418250D02*
D03*
X561750Y419500D02*
D03*
X595500Y180000D02*
D03*
X218000Y407250D02*
D03*
X483000Y96000D02*
D03*
X204000Y431000D02*
D03*
X191000Y410000D02*
D03*
X305000Y87000D02*
D03*
X239000Y135000D02*
D03*
X417250Y63750D02*
D03*
X63000Y452000D02*
D03*
X122250Y172000D02*
D03*
X213500Y136500D02*
D03*
X402250Y112250D02*
D03*
X139750Y224500D02*
D03*
X451750Y215000D02*
D03*
X478000Y250750D02*
D03*
X393250Y251000D02*
D03*
X82250Y294000D02*
D03*
X108500Y250500D02*
D03*
X233250Y194750D02*
D03*
X268000Y241000D02*
D03*
X217000Y248750D02*
D03*
Y335000D02*
D03*
X271000Y342250D02*
D03*
X57446Y523195D02*
D03*
X452000Y111500D02*
D03*
X471363Y91095D02*
D03*
X394500Y86500D02*
D03*
X148250Y134750D02*
D03*
X78000Y249500D02*
D03*
X60000Y227500D02*
D03*
X171750Y414750D02*
D03*
X41000Y284750D02*
D03*
X442000Y42000D02*
D03*
X462000D02*
D03*
X89000Y374000D02*
D03*
X100000Y370000D02*
D03*
X248250Y183250D02*
D03*
X204000Y207000D02*
D03*
X175000Y198000D02*
D03*
X88000Y118000D02*
D03*
Y110000D02*
D03*
X60000Y218000D02*
D03*
X115000Y194000D02*
D03*
Y216000D02*
D03*
X624000Y454000D02*
D03*
X327000Y179000D02*
D03*
X302000D02*
D03*
M02*
