G04*
G04 #@! TF.GenerationSoftware,Altium Limited,Altium Designer,20.1.10 (176)*
G04*
G04 Layer_Physical_Order=1*
G04 Layer_Color=255*
%FSLAX44Y44*%
%MOMM*%
G71*
G04*
G04 #@! TF.SameCoordinates,B75F8173-0FE2-46D9-B41C-7FCB152435E8*
G04*
G04*
G04 #@! TF.FilePolarity,Positive*
G04*
G01*
G75*
%ADD10C,0.2000*%
%ADD12C,0.5000*%
%ADD15R,0.6858X0.5588*%
%ADD16R,0.5588X0.6858*%
%ADD17R,1.3000X0.7000*%
%ADD18R,0.7000X1.3000*%
%ADD19R,1.3000X0.9000*%
%ADD20R,0.9000X1.3000*%
%ADD21R,0.6000X2.2000*%
%ADD22R,3.5000X2.2000*%
%ADD23R,2.5000X2.6000*%
%ADD24R,2.6000X2.5000*%
%ADD25R,1.0000X0.5500*%
%ADD26R,0.5500X1.0000*%
%ADD27R,1.6000X3.0000*%
%ADD28R,2.7000X2.0000*%
%ADD29R,0.8000X0.8000*%
%ADD30R,1.3500X0.4000*%
%ADD31R,1.9000X1.9000*%
%ADD32R,1.4000X1.6000*%
%ADD33R,1.5000X0.5500*%
%ADD34R,0.5500X1.5000*%
%ADD35R,0.9000X0.6000*%
%ADD63C,1.9000*%
%ADD64R,1.9000X1.9000*%
%ADD71C,1.0160*%
%ADD72C,0.6000*%
%ADD73C,0.8000*%
%ADD74C,1.0000*%
%ADD75C,0.4000*%
%ADD76C,3.2000*%
%ADD77C,4.0000*%
%ADD78O,1.6000X2.0000*%
%ADD79R,1.6000X2.0000*%
%ADD80C,7.4000*%
%ADD81C,1.7000*%
%ADD82R,1.7000X1.7000*%
%ADD83O,2.0000X1.6000*%
%ADD84R,2.0000X1.6000*%
G04:AMPARAMS|DCode=85|XSize=2mm|YSize=1.2mm|CornerRadius=0.36mm|HoleSize=0mm|Usage=FLASHONLY|Rotation=0.000|XOffset=0mm|YOffset=0mm|HoleType=Round|Shape=RoundedRectangle|*
%AMROUNDEDRECTD85*
21,1,2.0000,0.4800,0,0,0.0*
21,1,1.2800,1.2000,0,0,0.0*
1,1,0.7200,0.6400,-0.2400*
1,1,0.7200,-0.6400,-0.2400*
1,1,0.7200,-0.6400,0.2400*
1,1,0.7200,0.6400,0.2400*
%
%ADD85ROUNDEDRECTD85*%
%ADD86C,0.6000*%
G36*
X112000Y419000D02*
X130000D01*
Y402000D01*
X88000D01*
Y423000D01*
X76802D01*
X76200Y423079D01*
X75598Y423000D01*
X51402D01*
X50800Y423079D01*
X50198Y423000D01*
X34000D01*
Y403000D01*
X16000D01*
X16000Y436000D01*
X95000D01*
X112000Y419000D01*
D02*
G37*
G36*
X645000Y405000D02*
X683000D01*
Y295000D01*
X582000D01*
Y310000D01*
X591000Y319000D01*
Y340000D01*
X606000D01*
Y379000D01*
X586000D01*
Y365000D01*
X552000D01*
X552000Y389982D01*
X553018Y391000D01*
X600000Y391000D01*
X628000Y419000D01*
X645000D01*
Y405000D01*
D02*
G37*
G36*
X415000Y372000D02*
X400000D01*
Y460000D01*
X390000Y470000D01*
Y492000D01*
X415000D01*
Y372000D01*
D02*
G37*
G36*
X92000Y107000D02*
X85000Y100000D01*
X81000D01*
Y83500D01*
X61500D01*
X57000Y88000D01*
X4000D01*
Y111000D01*
X48000D01*
X52000Y115000D01*
X85000D01*
Y121000D01*
X92000D01*
Y107000D01*
D02*
G37*
G36*
X54000Y228091D02*
X53882Y227500D01*
Y224000D01*
X40000D01*
X38000Y222000D01*
Y191000D01*
X39000Y190000D01*
X39495D01*
Y189500D01*
X55677D01*
X56000Y189177D01*
Y168000D01*
X65000Y159000D01*
X103000D01*
Y179000D01*
X110000D01*
X118000Y187000D01*
X149270Y187000D01*
X149540Y186819D01*
X151686Y186392D01*
X169000D01*
X171146Y186819D01*
X171417Y187000D01*
X178500D01*
X178500Y164209D01*
X178290Y164000D01*
X148000Y164000D01*
X130000Y146000D01*
Y129000D01*
X120059Y119059D01*
X106750D01*
X106454Y119000D01*
X103000D01*
Y75000D01*
X105092D01*
X105580Y74674D01*
X106750Y74441D01*
X124500D01*
X125670Y74674D01*
X126158Y75000D01*
X140879D01*
X141600Y74905D01*
X142321Y75000D01*
X156716D01*
X156830Y74924D01*
X158000Y74691D01*
X186250D01*
X187421Y74924D01*
X187534Y75000D01*
X189000D01*
Y76466D01*
X189076Y76579D01*
X189309Y77750D01*
Y92000D01*
X211102D01*
X212000Y91102D01*
X212000Y67898D01*
X211102Y67000D01*
X201000Y67000D01*
Y30000D01*
X212000D01*
Y5000D01*
X94000D01*
Y47000D01*
X49000D01*
Y81000D01*
X49414Y82000D01*
X58674D01*
X59337Y81337D01*
X60329Y80674D01*
X61500Y80441D01*
X61500Y80441D01*
X81000D01*
X82170Y80674D01*
X83163Y81337D01*
X83826Y82330D01*
X84059Y83500D01*
Y95059D01*
X86181Y97181D01*
X87163Y97837D01*
X94163Y104837D01*
X94826Y105829D01*
X95059Y107000D01*
X95059Y107000D01*
Y121000D01*
X94826Y122170D01*
X94163Y123163D01*
X94000Y123272D01*
Y124000D01*
X92296D01*
X92000Y124059D01*
X88295D01*
X88000Y124117D01*
X87705Y124059D01*
X85000D01*
X84705Y124000D01*
X55000D01*
X45059Y114059D01*
X4000D01*
X4000Y241000D01*
X54000D01*
Y228091D01*
D02*
G37*
G36*
X198750Y110750D02*
X199000Y110500D01*
X217000D01*
Y95500D01*
X186250D01*
Y77750D01*
X158000D01*
X158000Y100000D01*
X169000D01*
X169000Y127000D01*
X169104Y127250D01*
X198750D01*
Y110750D01*
D02*
G37*
G36*
X152750Y101750D02*
X132000D01*
X124500Y94250D01*
Y77500D01*
X106750D01*
Y116000D01*
X121750D01*
X132000Y126250D01*
X152750D01*
Y101750D01*
D02*
G37*
G36*
X428000Y93000D02*
X434000Y87000D01*
X450000D01*
Y70000D01*
X416000D01*
Y107000D01*
X409000Y114000D01*
Y138000D01*
X428000D01*
Y93000D01*
D02*
G37*
G36*
X488000Y46000D02*
X475000D01*
Y83000D01*
X478000Y86000D01*
X478000D01*
Y101000D01*
X488000D01*
Y46000D01*
D02*
G37*
G36*
X364000Y15000D02*
X363750Y14750D01*
X346750D01*
Y29250D01*
X334250Y41750D01*
X324000D01*
Y51174D01*
X326326Y53500D01*
X364000D01*
Y15000D01*
D02*
G37*
G36*
X347250Y87250D02*
X378750D01*
X389750Y76250D01*
Y14500D01*
X372250D01*
Y57250D01*
X375750Y60750D01*
Y69500D01*
X371250Y74000D01*
X352750D01*
X345750Y81000D01*
X324250D01*
X323750Y81500D01*
Y90750D01*
X343750D01*
X347250Y87250D01*
D02*
G37*
G36*
X341000Y60750D02*
X329250Y60750D01*
X315250Y46750D01*
X315250Y14250D01*
X293000Y14250D01*
Y53500D01*
X309000Y53500D01*
X313500Y58000D01*
X313500Y76480D01*
X314667Y77750D01*
X341000D01*
Y60750D01*
D02*
G37*
G36*
X414829Y67174D02*
X416000Y66941D01*
X431000D01*
X431000Y42000D01*
X441000Y32000D01*
Y14000D01*
X398000D01*
Y58000D01*
X407500Y67500D01*
X414342D01*
X414829Y67174D01*
D02*
G37*
G36*
X38750Y43250D02*
X45000Y37000D01*
X79750D01*
Y6459D01*
X79000Y5500D01*
X4000D01*
Y76500D01*
X38750D01*
Y43250D01*
D02*
G37*
D10*
X99898Y272000D02*
X108000D01*
X165757Y247757D02*
Y253757D01*
X106000Y319000D02*
Y321250D01*
X106000Y321250D02*
X106000Y321250D01*
X165757Y253757D02*
X166000Y254000D01*
X94053Y327447D02*
X100250Y321250D01*
X157000Y202000D02*
Y257000D01*
X163000Y245000D02*
X165757Y247757D01*
X163000Y207250D02*
X163750Y206500D01*
X163000Y207250D02*
Y245000D01*
X89553Y327447D02*
X94053D01*
X100250Y321250D02*
X106000D01*
X157000Y257000D02*
X158000Y258000D01*
X89000Y328000D02*
X89553Y327447D01*
X155000Y200000D02*
X157000Y202000D01*
X251000Y394000D02*
X264500Y407500D01*
Y429000D02*
X275654Y440154D01*
X264500Y407500D02*
Y429000D01*
X278750Y404750D02*
Y415250D01*
X251000Y377000D02*
X278750Y404750D01*
X201250Y366000D02*
X271000D01*
X326176Y419176D02*
X326750Y419750D01*
X324176Y419176D02*
X326176D01*
X271000Y366000D02*
X324176Y419176D01*
X26250Y273500D02*
X26500D01*
X10587Y255586D02*
Y267894D01*
X11250Y268558D01*
X26500Y273500D02*
X27000Y274000D01*
X10000Y255000D02*
X10587Y255586D01*
X22394Y269645D02*
X26250Y273500D01*
X10375Y268558D02*
X11461Y269645D01*
X22394D01*
X410500Y361250D02*
X420000Y370750D01*
X416560Y508000D02*
X420000Y504560D01*
Y370750D02*
Y504560D01*
X117250Y484500D02*
X210750D01*
X226000Y499750D02*
Y513503D01*
X210750Y484500D02*
X226000Y499750D01*
Y513503D02*
X233997Y521500D01*
X428500Y251000D02*
X430500Y253000D01*
X413500Y281500D02*
X430500Y264500D01*
Y253000D02*
Y264500D01*
X428500Y249000D02*
Y251000D01*
X413500Y281500D02*
Y282000D01*
X508750Y428750D02*
X584200Y504200D01*
X508750Y245250D02*
X541963Y212037D01*
X508750Y245250D02*
Y428750D01*
X521000Y252780D02*
X569000Y204780D01*
X521000Y252780D02*
Y425000D01*
X565500Y469500D01*
X278000Y193000D02*
Y214750D01*
X308500Y245250D01*
Y326500D01*
X278000Y193000D02*
X283500Y187500D01*
X396500Y361250D02*
X410500D01*
X399500Y348000D02*
X418250D01*
X431750Y361500D01*
Y463500D01*
X401500Y334750D02*
X425250D01*
X442500Y352000D01*
Y451500D01*
X455500Y345500D02*
Y441750D01*
X401500Y321000D02*
X431000D01*
X455500Y345500D01*
X354000Y249750D02*
Y302500D01*
X315850Y201930D02*
X317854Y203934D01*
Y213604D01*
X354000Y249750D01*
Y302500D02*
X399500Y348000D01*
X341250Y216250D02*
X365750Y240750D01*
Y299500D02*
X401250Y335000D01*
X365750Y240750D02*
Y299500D01*
X377750Y297250D02*
X401500Y321000D01*
X366650Y223400D02*
X377750Y234500D01*
Y297250D01*
X341500Y306250D02*
X396500Y361250D01*
X341500Y253750D02*
Y306250D01*
X431750Y463500D02*
X457000Y488750D01*
X401250Y335000D02*
X401500Y334750D01*
X366650Y201930D02*
Y223400D01*
X341250Y201930D02*
Y216250D01*
X442500Y451500D02*
X481000Y490000D01*
X49245Y207500D02*
X65500D01*
X48750D02*
X49245D01*
X29750Y252000D02*
X50250D01*
X28500Y253250D02*
X29750Y252000D01*
X51500Y249000D02*
Y250750D01*
X50250Y252000D02*
X51500Y250750D01*
X89250Y313000D02*
X97000Y305250D01*
X50800Y316600D02*
X53479Y313921D01*
X58636D02*
X59557Y313000D01*
X53479Y313921D02*
X58636D01*
X59557Y313000D02*
X89250D01*
X97000Y305250D02*
X106000D01*
X35967Y379283D02*
X68250Y347000D01*
X74250D02*
X85750Y335500D01*
X68250Y347000D02*
X74250D01*
X85750Y335500D02*
X95250D01*
X25400Y386080D02*
X32197Y379283D01*
X35967D01*
X175250Y343250D02*
Y352250D01*
X200000Y377000D02*
X234000D01*
X175250Y352250D02*
X200000Y377000D01*
X182000Y342000D02*
Y346750D01*
X201250Y366000D01*
X174000Y342000D02*
X175250Y343250D01*
X308500Y326500D02*
X371250Y389250D01*
X495000Y205000D02*
Y215500D01*
X487000Y223500D02*
X495000Y215500D01*
X319000Y322787D02*
X382750Y386537D01*
X356921Y465900D02*
X382750Y440071D01*
Y386537D02*
Y440071D01*
X337250Y473000D02*
X371250Y439000D01*
Y389250D02*
Y439000D01*
X394000Y379750D02*
Y451250D01*
X331500Y317250D02*
X394000Y379750D01*
X377250Y468000D02*
X394000Y451250D01*
X292207Y216500D02*
X304250D01*
X341500Y253750D01*
X302824Y229574D02*
X331500Y258250D01*
Y317250D01*
X359500Y393000D02*
Y435250D01*
X318250Y476500D02*
Y497743D01*
Y476500D02*
X359500Y435250D01*
X298500Y332000D02*
X359500Y393000D01*
X455500Y441750D02*
X508000Y494250D01*
Y506000D01*
X481000Y490000D02*
Y510000D01*
X377250Y468000D02*
Y492250D01*
X391160Y506160D02*
Y508000D01*
X377250Y492250D02*
X391160Y506160D01*
X457000Y488750D02*
Y507000D01*
X314960Y508000D02*
X317447Y505513D01*
Y498545D02*
Y505513D01*
Y498545D02*
X318250Y497743D01*
X298500Y247000D02*
Y332000D01*
X271750Y220250D02*
X298500Y247000D01*
X262250Y117750D02*
X277750Y102250D01*
X262250Y221750D02*
X284000Y243500D01*
X262250Y117750D02*
Y221750D01*
X284000Y340000D02*
X343750Y399750D01*
X292000Y481000D02*
X343750Y429250D01*
Y399750D02*
Y429250D01*
X284000Y243500D02*
Y340000D01*
X364500Y102250D02*
X366500Y100250D01*
Y99000D02*
Y100250D01*
X277750Y102250D02*
X364500D01*
X271750Y123750D02*
X284500Y111000D01*
X354750D02*
X366650Y122900D01*
X284500Y111000D02*
X354750D01*
X271750Y123750D02*
Y220250D01*
X319000Y269250D02*
Y322787D01*
Y269250D02*
X319250Y269000D01*
X302824Y226824D02*
Y229574D01*
X302250Y226250D02*
X302824Y226824D01*
X337250Y473000D02*
Y497743D01*
X356921Y465900D02*
Y497161D01*
X337873Y506873D02*
X339000Y508000D01*
X337873Y498365D02*
Y506873D01*
X337250Y497743D02*
X337873Y498365D01*
X292000Y481000D02*
Y507000D01*
X290000Y509000D02*
X292000Y507000D01*
X493650Y201930D02*
Y204000D01*
X494000D02*
X495000Y205000D01*
X487000Y223500D02*
Y438000D01*
X519050Y201930D02*
Y214950D01*
X497750Y236250D02*
Y432750D01*
Y236250D02*
X519050Y214950D01*
X541963Y204417D02*
X544450Y201930D01*
X541963Y204417D02*
Y212037D01*
X533000Y263000D02*
Y422000D01*
X592000Y203000D02*
Y204000D01*
X533000Y263000D02*
X592000Y204000D01*
X568621Y203159D02*
Y204000D01*
X569000D02*
Y204780D01*
X532643Y483643D02*
Y507357D01*
X487000Y438000D02*
X532643Y483643D01*
X549000Y484000D02*
Y498200D01*
X497750Y432750D02*
X549000Y484000D01*
X584200Y504200D02*
Y508000D01*
X565500Y469500D02*
X582000D01*
X544750Y412000D02*
Y417750D01*
X577000Y450000D01*
X579000Y452500D02*
X582000D01*
X577000Y450500D02*
X579000Y452500D01*
X577000Y450000D02*
Y450500D01*
X549000Y498200D02*
X558800Y508000D01*
X568621Y203159D02*
X569850Y201930D01*
X545000Y268000D02*
Y388750D01*
X588250Y224750D02*
X603250D01*
X545000Y268000D02*
X588250Y224750D01*
X545000Y388750D02*
X574500Y418250D01*
X533000Y422000D02*
X573500Y462500D01*
X591000D01*
X582000Y469500D02*
X582500Y470000D01*
X544450Y110800D02*
X554250Y101000D01*
Y35468D02*
X558800Y30918D01*
X554250Y35468D02*
Y101000D01*
X558800Y25400D02*
Y30918D01*
X569850Y125730D02*
X570750Y124830D01*
Y48750D02*
Y124830D01*
Y48750D02*
X582311Y37189D01*
X585750Y53750D02*
X609600Y29900D01*
X585750Y109000D02*
X592763Y116013D01*
X585750Y53750D02*
Y109000D01*
X609600Y25400D02*
Y29900D01*
X635000Y25400D02*
Y25750D01*
X600500Y60250D02*
Y103580D01*
Y60250D02*
X635000Y25750D01*
X600500Y103580D02*
X620650Y123730D01*
X333500Y187500D02*
X345000Y176000D01*
X283500Y187500D02*
X333500D01*
X345000Y134998D02*
Y176000D01*
X341250Y125730D02*
Y131248D01*
X345000Y134998D01*
X203500Y161500D02*
X203549Y161549D01*
X203500Y153000D02*
Y161500D01*
X203549Y161549D02*
Y162187D01*
X366650Y122900D02*
Y125730D01*
X604250Y225750D02*
X605250D01*
X603250Y224750D02*
X604250Y225750D01*
X598250Y352250D02*
X598500Y352000D01*
X597000Y372000D02*
X598250Y370750D01*
Y352250D02*
Y370750D01*
X595587Y262000D02*
X660750D01*
X653000Y243000D02*
X660750D01*
X646000D02*
X652000D01*
X624037Y242750D02*
X644750D01*
X670000Y159997D02*
X671277Y158720D01*
X670000Y159997D02*
Y170750D01*
Y172750D02*
Y185250D01*
X668000Y187250D02*
X670000Y185250D01*
X654500Y183050D02*
X659250Y178300D01*
X654500Y183050D02*
Y192500D01*
X646029Y205028D02*
X648557Y202500D01*
Y198443D02*
X654500Y192500D01*
X645557Y205500D02*
X646029Y205028D01*
X659250Y174250D02*
Y178300D01*
X648557Y198443D02*
Y202500D01*
X644250Y205500D02*
X645557D01*
X642750Y222500D02*
X645000D01*
X647000Y220500D01*
Y206000D02*
Y220500D01*
X606265Y217750D02*
Y224735D01*
X614150Y210430D02*
X620750Y203830D01*
X606265Y217750D02*
X613585Y210430D01*
X614150D01*
X620750Y202750D02*
Y203830D01*
X660000Y167500D02*
X660500Y168000D01*
Y170750D01*
X659250Y174250D02*
X659500Y174000D01*
X483500Y32250D02*
X501000Y49750D01*
X474000Y6000D02*
X483500Y15500D01*
Y32250D01*
X501000Y49750D02*
Y94000D01*
X481500Y113500D02*
X501000Y94000D01*
X346000Y6000D02*
X474000D01*
X493650Y121100D02*
X516750Y98000D01*
X508000Y25000D02*
Y27400D01*
X514500Y33900D01*
X514993D01*
X516750Y35657D01*
Y98000D01*
X544450Y110800D02*
Y125730D01*
X537000Y34518D02*
Y98750D01*
X521374Y114376D02*
Y123406D01*
Y114376D02*
X537000Y98750D01*
X519050Y125730D02*
X521374Y123406D01*
X582311Y27289D02*
X584200Y25400D01*
X582311Y27289D02*
Y37189D01*
X592763Y123243D02*
X595250Y125730D01*
X592763Y116013D02*
Y123243D01*
X620650Y123730D02*
Y125730D01*
X493650Y121100D02*
Y125730D01*
X533400Y25400D02*
Y30918D01*
X537000Y34518D01*
X617250Y172250D02*
X642500Y147000D01*
X652250D01*
X652500Y142250D02*
X652750Y142000D01*
X628000Y142250D02*
X652500D01*
X500500Y155750D02*
X614500D01*
X628000Y142250D01*
X481500Y113500D02*
Y136750D01*
X500500Y155750D01*
X70000Y458000D02*
X95000D01*
X120000Y433000D02*
X167500D01*
X95000Y458000D02*
X120000Y433000D01*
X167500Y434250D02*
Y442500D01*
Y433000D02*
Y434250D01*
X37650Y329750D02*
X66000D01*
X75750Y320000D02*
X93250D01*
X66000Y329750D02*
X75750Y320000D01*
X70500Y276000D02*
X76000D01*
X89750Y280250D02*
X90000Y280500D01*
X76000Y276000D02*
X80250Y280250D01*
X89750D01*
X111318Y328682D02*
X112000Y328000D01*
X102068Y328682D02*
X111318D01*
X95250Y335500D02*
X102068Y328682D01*
X82250Y328000D02*
X89000D01*
X93250Y320000D02*
X100000Y313250D01*
X106000D01*
X37500Y304500D02*
X89500D01*
X98000Y296000D02*
X107000D01*
X89500Y304500D02*
X98000Y296000D01*
X25400Y316600D02*
X37500Y304500D01*
X25400Y342000D02*
X37650Y329750D01*
X51600Y341200D02*
X69050D01*
X82250Y328000D01*
X83000Y349750D02*
Y367000D01*
X90750Y342000D02*
X126000D01*
X83000Y349750D02*
X90750Y342000D01*
X78250Y371750D02*
X83000Y367000D01*
X64000Y379750D02*
X72000Y371750D01*
X78250D01*
X64000Y379750D02*
Y398280D01*
X50800Y411480D02*
X64000Y398280D01*
X196000Y344000D02*
X208500Y356500D01*
X278000D02*
X333000Y411500D01*
X208500Y356500D02*
X278000D01*
X97250Y381500D02*
X152000D01*
X160250Y389750D01*
Y408350D01*
X148000Y420600D02*
X160250Y408350D01*
X76200Y386080D02*
X79330D01*
X87750Y394500D02*
X145300D01*
X79330Y386080D02*
X87750Y394500D01*
X145300D02*
X146000Y395200D01*
X89000Y374000D02*
X89750D01*
X97250Y381500D01*
X219450Y414000D02*
X226200Y420750D01*
X195000Y422000D02*
X203000Y414000D01*
X219450D01*
X150432Y342432D02*
Y352932D01*
X170000Y372500D01*
X169000Y384500D02*
Y385500D01*
Y384500D02*
X170000Y383500D01*
X170500Y385500D02*
X181750D01*
X170000Y372500D02*
Y383500D01*
X150000Y342000D02*
X150432Y342432D01*
X203500Y407250D02*
X218000D01*
X181750Y385500D02*
X203500Y407250D01*
X167250Y346250D02*
Y356250D01*
X205000Y394000D02*
X235000D01*
X167250Y356250D02*
X205000Y394000D01*
X196000Y328000D02*
Y344000D01*
X333000Y411500D02*
Y411750D01*
X50800Y472440D02*
X54588D01*
X58401Y468628D01*
X59372D01*
X70000Y458000D01*
X45000Y485000D02*
X97750D01*
X25400Y472440D02*
X32400Y479440D01*
X39440D01*
X45000Y485000D01*
X288000Y475000D02*
Y504000D01*
X188250Y461000D02*
X274000D01*
X288000Y475000D01*
X279000Y478000D02*
Y486750D01*
X110750Y472000D02*
X273000D01*
X279000Y478000D01*
X90750Y511000D02*
X117250Y484500D01*
X97750Y485000D02*
X110750Y472000D01*
X288000Y504000D02*
X289000Y505000D01*
X63960Y511000D02*
X90750D01*
X50800Y497840D02*
X63960Y511000D01*
X617250Y172250D02*
Y198530D01*
X620650Y201930D01*
X580500Y403000D02*
X621100Y443600D01*
X572000Y403000D02*
X580500D01*
X608757Y471257D02*
X609000Y471500D01*
X591000Y462500D02*
X599757Y471257D01*
X608757D01*
X595750Y439250D02*
X609000Y452500D01*
X561750Y419500D02*
X581500Y439250D01*
X595750D01*
X621100Y443600D02*
X662000D01*
X210250Y151750D02*
X220000Y142000D01*
Y113500D02*
Y142000D01*
Y113500D02*
X225250Y108250D01*
X227235D01*
X228743Y106743D01*
X232000Y105250D02*
X232500Y105750D01*
X252250D01*
X271000Y87000D01*
X88000Y237000D02*
Y237500D01*
X61000Y249000D02*
X62250Y247750D01*
Y242757D02*
X67007Y238000D01*
X62250Y242757D02*
Y247750D01*
X87500Y238000D02*
X88000Y237500D01*
X67007Y238000D02*
X87500D01*
X63748Y178303D02*
X70050Y172000D01*
X63748Y178303D02*
Y187197D01*
X70050Y172000D02*
X88500D01*
X252500Y420500D02*
X252500Y420500D01*
X252500Y441000D02*
X252500Y441000D01*
X252500Y420500D02*
Y441000D01*
X236250Y420750D02*
X236500Y420500D01*
X226200Y420750D02*
X236250D01*
X100000Y370000D02*
X145800D01*
X146000Y369800D01*
Y420600D02*
X148000D01*
X99324Y272574D02*
X99898Y272000D01*
X93000Y280500D02*
X95000Y278500D01*
Y275500D02*
Y278500D01*
Y275500D02*
X97926Y272574D01*
X99324D01*
X55945Y195000D02*
X63748Y187197D01*
X55000Y195000D02*
X55945D01*
X248250Y163750D02*
Y183250D01*
X230500Y143500D02*
X231000Y144000D01*
X250000D01*
X251000Y143000D01*
X203500Y153000D02*
X204750Y151750D01*
X210250D01*
X290000Y79500D02*
Y84000D01*
X274000Y66500D02*
X277000D01*
X290000Y79500D01*
X244500Y82500D02*
X260500Y66500D01*
X272500D01*
X273000Y66000D01*
X244500Y17500D02*
Y82500D01*
Y16500D02*
Y17500D01*
X244000Y16000D02*
X244500Y16500D01*
X392050Y108550D02*
Y125730D01*
X386000Y102500D02*
X392050Y108550D01*
X386000Y102000D02*
Y102500D01*
X107500Y194000D02*
X115000D01*
X107500Y216000D02*
X115000D01*
X86500Y197500D02*
X87000Y197000D01*
X72000Y197500D02*
X86500D01*
X87000Y193000D02*
Y197000D01*
X72000Y212500D02*
X87500D01*
X88000Y213000D01*
X65500Y207500D02*
X70000Y212000D01*
X71000D01*
X49245Y201000D02*
X67000D01*
X70000Y198000D01*
X51500Y249000D02*
X61000D01*
X237000Y235000D02*
Y238000D01*
X248000Y249000D01*
Y264500D01*
X217000Y265500D02*
X240500D01*
X241000Y265000D01*
X196000Y272000D02*
X208000D01*
X212000Y268000D01*
Y267500D02*
Y268000D01*
Y267500D02*
X212500Y267000D01*
X213000D01*
X196000Y280000D02*
X209500D01*
X212000Y282500D01*
Y283000D01*
X217000Y284500D02*
X220000D01*
X236500Y301000D01*
Y302500D01*
X240000Y306000D01*
X243000D01*
X242000Y324000D02*
X249000D01*
X238500Y342000D02*
X241500Y339000D01*
Y324500D02*
Y339000D01*
Y324500D02*
X242000Y324000D01*
X166000Y345000D02*
X167250Y346250D01*
X106000Y304000D02*
Y305250D01*
X106000Y305250D02*
X106000Y305250D01*
Y312000D02*
Y313250D01*
X106000Y313250D02*
X106000Y313250D01*
X50800Y342000D02*
X51600Y341200D01*
X73500Y358000D02*
Y361000D01*
X50000Y384500D02*
X73500Y361000D01*
X50000Y384500D02*
Y385000D01*
X133750Y347000D02*
X134000D01*
X92500Y358000D02*
X125200D01*
X132750Y350450D01*
Y348000D02*
Y350450D01*
Y348000D02*
X133750Y347000D01*
X167500Y442500D02*
X169750D01*
X188250Y461000D01*
X233997Y521500D02*
X328860D01*
X337360Y513000D01*
X339000D01*
X446500Y250000D02*
Y265500D01*
X452000Y271000D01*
X455000D01*
X446500Y248000D02*
Y250000D01*
X429000Y230500D02*
X446500Y248000D01*
X429000Y230000D02*
Y230500D01*
X417450Y201930D02*
Y203930D01*
X429500Y215980D01*
Y226500D01*
X429000Y227000D02*
X429500Y226500D01*
X410000Y224500D02*
Y230500D01*
X428500Y249000D01*
X392050Y201930D02*
Y206550D01*
X410000Y224500D01*
X637000Y432500D02*
X639000Y430500D01*
X647500D01*
X660000Y418000D01*
Y418000D02*
Y418000D01*
X637000Y472500D02*
X657500D01*
X660000Y470000D01*
X330200Y21800D02*
X346000Y6000D01*
X330200Y21800D02*
Y25400D01*
X356921Y497161D02*
X365760Y506000D01*
X624000Y454000D02*
X624500Y453500D01*
X637000D01*
X316000Y126000D02*
Y127880D01*
X327000Y138880D01*
Y179000D01*
X365760Y506000D02*
Y508000D01*
X302000Y139000D02*
Y179000D01*
X290000Y127000D02*
Y127000D01*
X302000Y139000D01*
X290450Y214743D02*
X292207Y216500D01*
X290450Y201930D02*
Y214743D01*
X609000Y471500D02*
Y480000D01*
X635000Y506000D01*
X584000Y471500D02*
Y480400D01*
X607500Y503900D01*
Y507500D01*
D12*
X161250Y287500D02*
X169750Y296000D01*
X161250Y281000D02*
Y287500D01*
Y281000D02*
X168000Y274250D01*
X177000D02*
X181750Y269500D01*
Y264860D02*
Y269500D01*
X169750Y296000D02*
X196000D01*
X168000Y274250D02*
X177000D01*
X72000Y182500D02*
X72500Y183000D01*
X98541D01*
X664000Y241500D02*
Y261250D01*
X660750Y262500D02*
Y262500D01*
X662750D02*
X664000Y261250D01*
X661750Y241500D02*
X664000D01*
X660750Y242500D02*
X661750Y241500D01*
X196000Y296000D02*
X209500D01*
X151686Y192000D02*
X169000D01*
X148500Y211000D02*
Y214000D01*
X143500Y200186D02*
X151686Y192000D01*
X148000Y210500D02*
X148500Y211000D01*
X147015Y210500D02*
X148000D01*
X143500Y206985D02*
X147015Y210500D01*
X143500Y200186D02*
Y206985D01*
X129750Y216000D02*
Y235750D01*
X215000Y301500D02*
X217000D01*
X209500Y296000D02*
X215000Y301500D01*
X169000Y192000D02*
X175000Y198000D01*
X219250Y176750D02*
X230250Y165750D01*
D15*
X11250Y268558D02*
D03*
Y292942D02*
D03*
D16*
X601366Y242750D02*
D03*
X625750D02*
D03*
D17*
X170500Y385500D02*
D03*
Y404500D02*
D03*
X90000Y261500D02*
D03*
Y280500D02*
D03*
X217000Y265500D02*
D03*
Y284500D02*
D03*
X609000Y471500D02*
D03*
Y452500D02*
D03*
X582000D02*
D03*
Y471500D02*
D03*
X637000Y432500D02*
D03*
Y413500D02*
D03*
X665500Y207250D02*
D03*
Y188250D02*
D03*
X31250Y275500D02*
D03*
Y294500D02*
D03*
X664000Y222500D02*
D03*
Y241500D02*
D03*
X274000Y66500D02*
D03*
Y47500D02*
D03*
X248250Y163750D02*
D03*
Y144750D02*
D03*
X642750Y222500D02*
D03*
Y241500D02*
D03*
X332000Y85500D02*
D03*
Y66500D02*
D03*
Y46500D02*
D03*
Y65500D02*
D03*
D18*
X297750Y440500D02*
D03*
X278750D02*
D03*
X279000Y418500D02*
D03*
X298000D02*
D03*
X92500Y358000D02*
D03*
X73500D02*
D03*
X107500Y216000D02*
D03*
X88500D02*
D03*
Y194000D02*
D03*
X107500D02*
D03*
Y172000D02*
D03*
X88500D02*
D03*
X385500Y99000D02*
D03*
X366500D02*
D03*
X624250Y225750D02*
D03*
X605250D02*
D03*
X253000Y441000D02*
D03*
X234000D02*
D03*
X410500Y228000D02*
D03*
X429500D02*
D03*
X598500Y352000D02*
D03*
X579500D02*
D03*
X9500Y253250D02*
D03*
X28500D02*
D03*
X289500Y87000D02*
D03*
X270500D02*
D03*
X148500Y214000D02*
D03*
X129500D02*
D03*
D19*
X114000Y129500D02*
D03*
Y110500D02*
D03*
X209000Y125000D02*
D03*
Y106000D02*
D03*
X217000Y236500D02*
D03*
Y217500D02*
D03*
Y320500D02*
D03*
Y301500D02*
D03*
X173000Y217500D02*
D03*
Y236500D02*
D03*
X23000Y451500D02*
D03*
Y432500D02*
D03*
X637000Y453500D02*
D03*
Y472500D02*
D03*
X304000Y66500D02*
D03*
Y47500D02*
D03*
X355000Y66500D02*
D03*
Y47500D02*
D03*
X212000Y441500D02*
D03*
Y422500D02*
D03*
X217250Y195750D02*
D03*
Y176750D02*
D03*
X644250Y186500D02*
D03*
Y205500D02*
D03*
X232000Y124250D02*
D03*
Y105250D02*
D03*
X442000Y59500D02*
D03*
Y78500D02*
D03*
X195000Y217500D02*
D03*
Y236500D02*
D03*
X194750Y176750D02*
D03*
Y195750D02*
D03*
D20*
X462500Y77000D02*
D03*
X481500D02*
D03*
X260500Y484000D02*
D03*
X241500D02*
D03*
X402500Y77000D02*
D03*
X421500D02*
D03*
X598500Y330000D02*
D03*
X579500D02*
D03*
X149000Y236000D02*
D03*
X130000D02*
D03*
X257500Y342000D02*
D03*
X238500D02*
D03*
X256500Y236000D02*
D03*
X237500D02*
D03*
X403500Y50000D02*
D03*
X384500D02*
D03*
X40500Y523000D02*
D03*
X21500D02*
D03*
X446500Y228000D02*
D03*
X465500D02*
D03*
X402500Y99000D02*
D03*
X421500D02*
D03*
X458500D02*
D03*
X439500D02*
D03*
X409500Y251000D02*
D03*
X428500D02*
D03*
X465500Y250000D02*
D03*
X446500D02*
D03*
X674750Y125500D02*
D03*
X655750D02*
D03*
X70500Y294000D02*
D03*
X51500D02*
D03*
X108500Y238000D02*
D03*
X89500D02*
D03*
X462500Y55000D02*
D03*
X481500D02*
D03*
D21*
X135600Y114000D02*
D03*
X148300D02*
D03*
X161000D02*
D03*
X173700D02*
D03*
X186400D02*
D03*
D22*
X161000Y176000D02*
D03*
D23*
X462500Y282000D02*
D03*
X413500D02*
D03*
D24*
X248000Y264500D02*
D03*
Y313500D02*
D03*
D25*
X167500Y442500D02*
D03*
Y433000D02*
D03*
Y423500D02*
D03*
X194500Y442500D02*
D03*
Y423500D02*
D03*
X203500Y162500D02*
D03*
Y153000D02*
D03*
Y143500D02*
D03*
X230500Y162500D02*
D03*
Y143500D02*
D03*
D26*
X51500Y249000D02*
D03*
X61000D02*
D03*
X70500D02*
D03*
X51500Y276000D02*
D03*
X70500D02*
D03*
X670000Y170750D02*
D03*
X660500D02*
D03*
X651000D02*
D03*
X670000Y143750D02*
D03*
X651000D02*
D03*
D27*
X72000Y140500D02*
D03*
Y99500D02*
D03*
Y65500D02*
D03*
Y24500D02*
D03*
D28*
X20000Y69000D02*
D03*
Y101000D02*
D03*
D29*
X597000Y372000D02*
D03*
X581000D02*
D03*
X252500Y420500D02*
D03*
X236500D02*
D03*
X251000Y394000D02*
D03*
X235000D02*
D03*
X251000Y377000D02*
D03*
X235000D02*
D03*
D30*
X49245Y201000D02*
D03*
Y188000D02*
D03*
Y194500D02*
D03*
Y207500D02*
D03*
Y214000D02*
D03*
D31*
X22495Y213000D02*
D03*
Y189000D02*
D03*
X244500Y82500D02*
D03*
D32*
X46995Y169000D02*
D03*
Y233000D02*
D03*
D33*
X196000Y272000D02*
D03*
Y280000D02*
D03*
Y288000D02*
D03*
Y296000D02*
D03*
Y304000D02*
D03*
Y312000D02*
D03*
Y320000D02*
D03*
Y328000D02*
D03*
X112000D02*
D03*
Y320000D02*
D03*
Y312000D02*
D03*
Y304000D02*
D03*
Y296000D02*
D03*
Y288000D02*
D03*
Y280000D02*
D03*
Y272000D02*
D03*
D34*
X182000Y342000D02*
D03*
X174000D02*
D03*
X166000D02*
D03*
X158000D02*
D03*
X150000D02*
D03*
X142000D02*
D03*
X134000D02*
D03*
X126000D02*
D03*
Y258000D02*
D03*
X134000D02*
D03*
X142000D02*
D03*
X150000D02*
D03*
X158000D02*
D03*
X166000D02*
D03*
X174000D02*
D03*
X182000D02*
D03*
D35*
X72000Y227500D02*
D03*
Y212500D02*
D03*
Y182500D02*
D03*
Y197500D02*
D03*
D63*
X661750Y307500D02*
D03*
X596750Y262500D02*
D03*
Y307500D02*
D03*
X199500Y82500D02*
D03*
X244500Y17500D02*
D03*
X199500D02*
D03*
D64*
X661750Y262500D02*
D03*
D71*
X102000Y519000D02*
D03*
X668000Y19000D02*
D03*
X223000Y45000D02*
D03*
X670000Y506000D02*
D03*
D72*
X23000Y451500D02*
X23500Y451000D01*
X62000D02*
X63000Y452000D01*
X23500Y451000D02*
X62000D01*
X181500Y287500D02*
X181750Y287750D01*
X149750Y271500D02*
X150000Y271250D01*
Y258000D02*
Y271250D01*
X181750Y287750D02*
X195750D01*
X196000Y288000D01*
X297750Y419250D02*
Y440500D01*
Y419250D02*
X298000Y419000D01*
X298500Y419500D01*
X299000Y419000D01*
X309500D01*
X11250Y280750D02*
Y292942D01*
X11473D01*
X13531Y295000D01*
X30000D01*
X161000Y112000D02*
Y134500D01*
X56250Y218000D02*
X60000D01*
X53664Y215414D02*
X56250Y218000D01*
X191000Y143500D02*
X203500D01*
X51000Y273000D02*
X52250D01*
X212500Y442000D02*
X215500Y439000D01*
X210000Y442000D02*
X210750Y442750D01*
X233500Y441500D02*
X234750Y442750D01*
X647500Y174000D02*
X651000Y170500D01*
X647500Y174000D02*
X648000D01*
X630750D02*
X647500D01*
X649250Y172750D02*
X650750D01*
X648000Y174000D02*
X649250Y172750D01*
X674750Y125500D02*
X676250Y124000D01*
Y115250D02*
Y124000D01*
Y115250D02*
X676750Y114750D01*
X442850Y121024D02*
Y125850D01*
X440000Y118174D02*
X442850Y121024D01*
X440000Y101500D02*
Y118174D01*
X214750Y217250D02*
Y217500D01*
X355000Y66500D02*
X368000D01*
X368000Y66500D01*
X289000Y59500D02*
Y67500D01*
X277000Y47500D02*
X289000Y59500D01*
X223000Y484000D02*
X241500D01*
X218750Y479750D02*
X223000Y484000D01*
X129750Y235750D02*
X130000Y236000D01*
X129000Y215250D02*
X129750Y216000D01*
X141750Y257750D02*
X142000Y258000D01*
X141750Y248429D02*
Y257750D01*
X132821Y239500D02*
X141750Y248429D01*
X182750Y253000D02*
X191500Y244250D01*
Y238000D02*
Y244250D01*
Y238000D02*
X193000Y236500D01*
X195000D01*
X193500Y219000D02*
Y226000D01*
Y219000D02*
X195000Y217500D01*
X173000D02*
X173750Y218250D01*
Y226000D01*
X180250Y147000D02*
X181500D01*
X217250Y176750D02*
X219250D01*
X230250Y163500D02*
Y165750D01*
X640250Y182250D02*
X643250Y185250D01*
X626000Y182250D02*
X640250D01*
X227250Y432500D02*
X233500Y438750D01*
X216500Y440000D02*
X223250Y433250D01*
Y432500D02*
X227250D01*
X223250D02*
Y433250D01*
X204000Y428750D02*
X210250Y422500D01*
X204000Y428750D02*
Y431000D01*
X190000Y410000D02*
X191000D01*
X176500Y423500D02*
X190000Y410000D01*
X304000Y66500D02*
X305000Y67500D01*
Y87000D01*
X232000Y124250D02*
X239000Y131250D01*
Y135000D01*
X215500Y439000D02*
X216500Y440000D01*
X213500Y132000D02*
Y136500D01*
X208500Y127000D02*
X213500Y132000D01*
X208500Y127000D02*
X209500Y126000D01*
X241250Y484250D02*
X241500Y484000D01*
X238760Y508000D02*
X241056Y505704D01*
Y497851D02*
Y505704D01*
Y497851D02*
X241250Y497657D01*
Y484250D02*
Y497657D01*
X643250Y185250D02*
X643500Y185000D01*
X262330Y504580D02*
X265750Y508000D01*
X402250Y99250D02*
Y112250D01*
Y99250D02*
X402500Y99000D01*
X139750Y224750D02*
X149000Y234000D01*
X139750Y224500D02*
Y224750D01*
X450000Y215000D02*
X451750D01*
X446500Y218500D02*
X450000Y215000D01*
X446500Y218500D02*
Y228000D01*
X477250Y250000D02*
X478000Y250750D01*
X465500Y250000D02*
X477250D01*
X393250Y251000D02*
X409500D01*
X70500Y294000D02*
X82250D01*
X108500Y250500D02*
X108500Y250500D01*
X108500Y238000D02*
Y250500D01*
X149000Y234000D02*
Y236000D01*
X212500Y215000D02*
X214750Y217250D01*
X204000Y207000D02*
X204250D01*
X197967Y196967D02*
X199250Y198250D01*
X212250Y215000D02*
X212500D01*
X199250Y198250D02*
Y202000D01*
X204250Y207000D02*
X212250Y215000D01*
X199250Y202000D02*
X204000Y206750D01*
Y207000D01*
X214750Y217500D02*
X217000D01*
X217250Y195750D02*
X231709D01*
X232709Y194750D01*
X233250D01*
X263000Y236000D02*
X268000Y241000D01*
X256500Y236000D02*
X263000D01*
X217000Y236500D02*
Y248750D01*
Y320500D02*
Y335000D01*
X270750Y342000D02*
X271000Y342250D01*
X257500Y342000D02*
X270750D01*
X260500Y484000D02*
X262330Y485830D01*
Y504580D01*
X210250Y422500D02*
X212000D01*
X167500Y423500D02*
X176500D01*
X57251Y523000D02*
X57446Y523195D01*
X40500Y523000D02*
X57251D01*
X643500Y185000D02*
X645000Y186500D01*
X452000Y110750D02*
Y111500D01*
Y110750D02*
X458500Y104250D01*
Y99000D02*
Y104250D01*
X462500Y82232D02*
X471363Y91095D01*
X462500Y77000D02*
Y82232D01*
X394500Y86500D02*
X402500Y78500D01*
Y77000D02*
Y78500D01*
X209000Y125500D02*
X209500Y126000D01*
X70500Y249000D02*
X71000Y249500D01*
X77250D01*
X72000Y227500D02*
X80163D01*
X52250Y273000D02*
X63750Y261500D01*
X90000D01*
X60000Y218000D02*
Y227500D01*
X21500Y523000D02*
X23450Y521050D01*
Y499050D02*
Y521050D01*
Y499050D02*
X25000Y497500D01*
X212000Y441500D02*
X212500Y442000D01*
X194500Y442500D02*
X195000Y442000D01*
X210000D01*
X170500Y404500D02*
X171750Y405750D01*
Y414500D01*
X50750Y284750D02*
X51500Y284000D01*
X41000Y284750D02*
X50750D01*
X51500Y284000D02*
Y294000D01*
Y277500D02*
Y284000D01*
X51000Y277000D02*
X51500Y277500D01*
X274000Y47500D02*
X277000D01*
X442000Y42000D02*
Y59500D01*
X462250Y54750D02*
X462500Y55000D01*
X462250Y42250D02*
Y54750D01*
X462000Y42000D02*
X462250Y42250D01*
X468250Y199930D02*
Y201930D01*
X465500Y228000D02*
X466875Y226625D01*
Y204125D02*
Y226625D01*
Y204125D02*
X468000Y203000D01*
X213000Y218000D02*
Y219500D01*
X197500Y235000D02*
X213000Y219500D01*
X355600Y25400D02*
Y46000D01*
X332000Y46500D02*
X332500Y47000D01*
X352000D01*
X353000Y46000D01*
X355600Y25400D02*
X356000Y25000D01*
X21000Y29000D02*
X70000D01*
X71000Y28000D01*
X20000Y69000D02*
X21000Y68000D01*
Y29000D02*
Y68000D01*
D73*
X613750Y60399D02*
Y93000D01*
X643750Y123000D01*
X655750Y127500D02*
X680000Y151750D01*
Y278250D01*
X655750Y123500D02*
Y125500D01*
X655250Y123000D02*
X655750Y123500D01*
X643750Y123000D02*
X655250D01*
X571750Y285750D02*
X672500D01*
X571750Y255750D02*
Y285750D01*
Y321000D01*
X672500Y285750D02*
X680000Y278250D01*
X679250Y222500D02*
X679750Y223000D01*
X664000Y222500D02*
X679250D01*
X571750Y255750D02*
X584750Y242750D01*
X601366D01*
X609250D01*
X623750Y228250D01*
X623750D01*
X665500Y207250D02*
X679500D01*
X579500Y330000D02*
X579500Y330000D01*
X579500Y352000D02*
X579500Y352000D01*
Y330000D02*
Y352000D01*
X571750Y321000D02*
X579000Y328250D01*
X181500Y147000D02*
X192250Y157750D01*
X192750Y176750D02*
X194750D01*
X192250Y176250D02*
X192750Y176750D01*
X192250Y157750D02*
Y176250D01*
X148250Y134750D02*
X160000Y146500D01*
X148000Y134500D02*
X148250Y134750D01*
X160000Y146500D02*
X179750D01*
X195000Y176750D02*
X213750D01*
D74*
X579000Y328250D02*
Y328500D01*
X446000Y177680D02*
X468250Y199930D01*
X446000Y154000D02*
Y177680D01*
X442850Y125850D02*
X497000Y180000D01*
X595500D01*
X442850Y125730D02*
Y125850D01*
D75*
X174000Y238000D02*
X174500Y237500D01*
X174000Y238000D02*
Y258000D01*
X179000Y157500D02*
X183750Y162250D01*
Y227750D01*
X176250Y235000D02*
X176500D01*
X183750Y227750D01*
X156500Y157500D02*
X179000D01*
X135600Y136600D02*
X156500Y157500D01*
X135600Y114000D02*
Y136600D01*
D76*
X152400Y508000D02*
D03*
D77*
X21000Y29000D02*
D03*
Y137000D02*
D03*
D78*
X187960Y508000D02*
D03*
X213360D02*
D03*
X238760D02*
D03*
X264160D02*
D03*
X289560D02*
D03*
X314960D02*
D03*
X340360D02*
D03*
X365760D02*
D03*
X391160D02*
D03*
X304800Y25400D02*
D03*
X330200D02*
D03*
X355600D02*
D03*
X381000D02*
D03*
X406400D02*
D03*
X431800D02*
D03*
X457200D02*
D03*
X609600Y508000D02*
D03*
X584200D02*
D03*
X558800D02*
D03*
X533400D02*
D03*
X508000D02*
D03*
X482600D02*
D03*
X457200D02*
D03*
X533400Y25400D02*
D03*
X558800D02*
D03*
X584200D02*
D03*
X609600D02*
D03*
X635000D02*
D03*
X141600Y88000D02*
D03*
X167000D02*
D03*
X290450Y125730D02*
D03*
X315850D02*
D03*
X341250D02*
D03*
X366650D02*
D03*
X392050D02*
D03*
X417450D02*
D03*
X442850D02*
D03*
X468250D02*
D03*
X493650D02*
D03*
X519050D02*
D03*
X544450D02*
D03*
X569850D02*
D03*
X595250D02*
D03*
X620650D02*
D03*
X290450Y201930D02*
D03*
X315850D02*
D03*
X341250D02*
D03*
X366650D02*
D03*
X392050D02*
D03*
X417450D02*
D03*
X442850D02*
D03*
X468250D02*
D03*
X493650D02*
D03*
X519050D02*
D03*
X544450D02*
D03*
X569850D02*
D03*
X595250D02*
D03*
D79*
X416560Y508000D02*
D03*
X279400Y25400D02*
D03*
X635000Y508000D02*
D03*
X508000Y25400D02*
D03*
X116200Y88000D02*
D03*
X620650Y201930D02*
D03*
D80*
X139700Y25400D02*
D03*
X660400Y76200D02*
D03*
Y355600D02*
D03*
D81*
X76200Y497840D02*
D03*
X50800D02*
D03*
X25400D02*
D03*
X76200Y472440D02*
D03*
X50800D02*
D03*
X76200Y411480D02*
D03*
X50800D02*
D03*
X25400D02*
D03*
X76200Y386080D02*
D03*
X50800D02*
D03*
X25400Y316600D02*
D03*
X50800D02*
D03*
X25400Y342000D02*
D03*
D82*
Y472440D02*
D03*
Y386080D02*
D03*
X50800Y342000D02*
D03*
D83*
X146000Y369800D02*
D03*
Y395200D02*
D03*
Y420600D02*
D03*
X662000Y443600D02*
D03*
Y418200D02*
D03*
D84*
X146000Y446000D02*
D03*
X662000Y469000D02*
D03*
D85*
X21495Y168000D02*
D03*
X22495Y234000D02*
D03*
D86*
X155000Y200000D02*
D03*
X149750Y271500D02*
D03*
X163750Y206500D02*
D03*
X100000Y272000D02*
D03*
X89000Y328000D02*
D03*
X181500Y287500D02*
D03*
X309500Y419000D02*
D03*
X326750Y419750D02*
D03*
X11250Y280750D02*
D03*
X161000Y134500D02*
D03*
X121750Y156250D02*
D03*
X130500Y180000D02*
D03*
X130250Y172000D02*
D03*
X130000Y164000D02*
D03*
X122250D02*
D03*
X122500Y180250D02*
D03*
X411000Y383000D02*
D03*
X404000D02*
D03*
X411000Y390000D02*
D03*
X407000Y477000D02*
D03*
X397000D02*
D03*
X396000Y487000D02*
D03*
X98500Y183000D02*
D03*
X404000Y390000D02*
D03*
X407000Y487000D02*
D03*
X302250Y226250D02*
D03*
X319250Y269000D02*
D03*
X558000Y387000D02*
D03*
Y379000D02*
D03*
X613500Y68500D02*
D03*
X613750Y60500D02*
D03*
X191000Y143500D02*
D03*
X670000Y159000D02*
D03*
X676750Y114500D02*
D03*
X446000Y154000D02*
D03*
X409250Y63500D02*
D03*
X426000Y63750D02*
D03*
X368000Y66500D02*
D03*
X324250Y73000D02*
D03*
X318250Y68250D02*
D03*
X289000Y67500D02*
D03*
X115000Y407000D02*
D03*
X119000Y414000D02*
D03*
X124000Y407000D02*
D03*
X279000Y486750D02*
D03*
X218750Y479750D02*
D03*
X194000Y226000D02*
D03*
X173750D02*
D03*
X626000Y182250D02*
D03*
X630750Y174000D02*
D03*
X81500Y227250D02*
D03*
X572000Y403000D02*
D03*
X223250Y432500D02*
D03*
X333000Y411750D02*
D03*
X544750Y412000D02*
D03*
X557500Y371000D02*
D03*
X574500Y418250D02*
D03*
X561750Y419500D02*
D03*
X595500Y180000D02*
D03*
X218000Y407250D02*
D03*
X483000Y96000D02*
D03*
X204000Y431000D02*
D03*
X191000Y410000D02*
D03*
X305000Y87000D02*
D03*
X239000Y135000D02*
D03*
X417250Y63750D02*
D03*
X63000Y452000D02*
D03*
X122250Y172000D02*
D03*
X213500Y136500D02*
D03*
X402250Y112250D02*
D03*
X139750Y224500D02*
D03*
X451750Y215000D02*
D03*
X478000Y250750D02*
D03*
X393250Y251000D02*
D03*
X82250Y294000D02*
D03*
X108500Y250500D02*
D03*
X233250Y194750D02*
D03*
X268000Y241000D02*
D03*
X217000Y248750D02*
D03*
Y335000D02*
D03*
X271000Y342250D02*
D03*
X57446Y523195D02*
D03*
X452000Y111500D02*
D03*
X471363Y91095D02*
D03*
X394500Y86500D02*
D03*
X148250Y134750D02*
D03*
X78000Y249500D02*
D03*
X60000Y227500D02*
D03*
X171750Y414750D02*
D03*
X41000Y284750D02*
D03*
X442000Y42000D02*
D03*
X462000D02*
D03*
X89000Y374000D02*
D03*
X100000Y370000D02*
D03*
X248250Y183250D02*
D03*
X204000Y207000D02*
D03*
X175000Y198000D02*
D03*
X88000Y118000D02*
D03*
Y110000D02*
D03*
X60000Y218000D02*
D03*
X115000Y194000D02*
D03*
Y216000D02*
D03*
X624000Y454000D02*
D03*
X327000Y179000D02*
D03*
X302000D02*
D03*
M02*
